<svg width="40" height="40" viewBox="0 0 40 40" fill="none" xmlns="http://www.w3.org/2000/svg">
<rect x="1" y="1" width="38" height="38" rx="19" fill="#232931" stroke="#232931" stroke-width="2"/>
<path d="M27.671 24.812C27.3941 25.4575 27.052 26.073 26.65 26.649C26.113 27.416 25.672 27.946 25.334 28.241C24.809 28.723 24.245 28.971 23.642 28.985C23.21 28.985 22.688 28.862 22.08 28.612C21.47 28.363 20.91 28.241 20.397 28.241C19.86 28.241 19.284 28.363 18.667 28.612C18.051 28.862 17.553 28.993 17.172 29.005C16.595 29.03 16.018 28.776 15.443 28.241C15.076 27.921 14.617 27.371 14.066 26.593C13.476 25.764 12.991 24.799 12.611 23.702C12.204 22.515 12 21.367 12 20.255C12 18.982 12.275 17.883 12.826 16.963C13.2427 16.2405 13.8385 15.6374 14.556 15.212C15.2635 14.7877 16.0711 14.5592 16.896 14.55C17.356 14.55 17.959 14.692 18.706 14.972C19.453 15.252 19.933 15.394 20.142 15.394C20.3 15.394 20.831 15.227 21.735 14.896C22.588 14.589 23.308 14.462 23.898 14.512C25.498 14.641 26.699 15.271 27.498 16.407C26.068 17.274 25.361 18.487 25.375 20.044C25.387 21.257 25.828 22.266 26.692 23.067C27.074 23.4325 27.5197 23.725 28.007 23.93C27.901 24.237 27.789 24.53 27.671 24.812ZM24.004 10.381C24.004 11.331 23.656 12.219 22.965 13.04C22.129 14.016 21.119 14.581 20.024 14.492C20.0097 14.3725 20.0027 14.2523 20.003 14.132C20.003 13.219 20.399 12.243 21.106 11.444C21.458 11.04 21.906 10.703 22.449 10.435C22.991 10.171 23.503 10.025 23.985 10C23.998 10.128 24.004 10.255 24.004 10.381Z" fill="#F0F3F7"/>
</svg>
