<svg width="245" height="103" viewBox="0 0 245 103" fill="none" xmlns="http://www.w3.org/2000/svg">
<path opacity="0.7" d="M0.994141 1C12 33 13.3835 38.8253 28.2005 54.3075C38.2933 62.403 49.7071 73.5851 60.708 76.4636M60.708 76.4636C78.3495 81.0798 86.8033 75.745 92.2662 67.8972C92.3639 67.7568 92.4436 67.6008 92.499 67.4391C98.3923 50.2548 75.5585 32.277 63.4855 48.5614C53.8302 61.5847 57.3091 70.1074 60.708 76.4636ZM60.708 76.4636C68.5877 83.4758 84.2477 87.5723 95.6037 92.9649C131.678 105.095 170.225 104.452 216.305 84.4485M214.331 72.2522L225.15 93.9636C226.575 96.823 230.612 96.9404 232.201 94.1687L243.353 74.712C244.793 72.2007 243.171 69.0392 240.291 68.7437L218.319 66.489C215.183 66.1672 212.925 69.4306 214.331 72.2522Z" stroke="url(#paint0_linear)" stroke-width="2" stroke-dasharray="5 5"/>
<defs>
<linearGradient id="paint0_linear" x1="184.21" y1="24.1679" x2="183.667" y2="119.691" gradientUnits="userSpaceOnUse">
<stop stop-color="#5E2EC4"/>
<stop offset="1" stop-color="#3263E1"/>
</linearGradient>
</defs>
</svg>
