<svg width="64" height="64" viewBox="0 0 64 64" fill="none" xmlns="http://www.w3.org/2000/svg">
<g filter="url(#filter0_d)">
<circle cx="32" cy="28" r="24" fill="#F8F9FB"/>
</g>
<path d="M18.7501 32.0133L18.7501 32.0133C18.7433 31.5861 19.094 31.25 19.4738 31.25H20.6123V32.75H19.4409C19.0923 32.75 18.757 32.4478 18.7501 32.0133ZM20.6122 39.1307C20.6122 39.598 20.6122 39.9793 20.6122 40.2906C20.0577 39.7052 19.7106 38.8973 19.7106 38V35.2516C19.8929 35.2524 20.1207 35.2519 20.4131 35.2513C20.4764 35.2511 20.5427 35.251 20.6123 35.2508C20.6123 36.9584 20.6122 38.211 20.6122 39.1307ZM27.8173 15.7163C26.3893 16.345 25.1067 17.2564 24.0336 18.3809V13.75C24.0336 13.1691 24.4786 12.75 24.9648 12.75H26.8861C27.3723 12.75 27.8173 13.1691 27.8173 13.75V15.7163ZM31.2177 15.5666C31.2634 15.5615 31.3047 15.5378 31.3352 15.5021L33.5676 15.2515C32.8811 14.5383 31.7951 14.6148 31.1896 15.3163C31.1896 15.3163 31.1896 15.3163 31.1896 15.3163C31.1795 15.3281 31.1695 15.34 31.1596 15.352C31.1596 15.352 31.1596 15.352 31.1596 15.352C31.0991 15.4262 31.0438 15.507 30.9947 15.5941C31.0689 15.5842 31.1432 15.575 31.2177 15.5666ZM40.7862 18.3808C39.7131 17.2563 38.4305 16.345 37.0026 15.7163V13.75C37.0026 13.1691 37.4475 12.75 37.9337 12.75H39.8551C40.3412 12.75 40.7862 13.1691 40.7862 13.75V18.3808ZM36.6471 15.5668C36.6481 15.5672 36.649 15.5676 36.6499 15.568L36.6475 15.567L36.6471 15.5668ZM44.2075 32.75V31.25H45.5261C45.9059 31.25 46.2567 31.5861 46.2499 32.0133C46.243 32.4478 45.9076 32.75 45.559 32.75H44.2075ZM44.2076 39.1309C44.2076 38.2111 44.2076 36.9582 44.2075 35.2503C44.3556 35.2504 44.4892 35.2505 44.6098 35.2506C44.8092 35.2508 44.9733 35.2509 45.1092 35.2509V38C45.1092 38.8973 44.7621 39.7052 44.2076 40.2906C44.2076 39.9793 44.2076 39.5981 44.2076 39.1309ZM23.0729 27C23.0729 21.5958 27.2902 17.25 32.4099 17.25C37.5296 17.25 41.7469 21.5958 41.7469 27V41.625C41.7469 42.549 41.0311 43.25 40.2153 43.25H24.6045C23.7888 43.25 23.0729 42.549 23.0729 41.625V27ZM29.648 21.75C28.6098 21.75 27.8173 22.6191 27.8173 23.625V26.375C27.8173 27.3809 28.6098 28.25 29.648 28.25H35.1718C36.21 28.25 37.0026 27.3809 37.0026 26.375V23.625C37.0026 22.6191 36.21 21.75 35.1718 21.75H29.648Z" stroke="url(#paint0_linear)" stroke-width="1.5"/>
<defs>
<filter id="filter0_d" x="0" y="0" width="64" height="64" filterUnits="userSpaceOnUse" color-interpolation-filters="sRGB">
<feFlood flood-opacity="0" result="BackgroundImageFix"/>
<feColorMatrix in="SourceAlpha" type="matrix" values="0 0 0 0 0 0 0 0 0 0 0 0 0 0 0 0 0 0 127 0"/>
<feOffset dy="4"/>
<feGaussianBlur stdDeviation="4"/>
<feColorMatrix type="matrix" values="0 0 0 0 0.813073 0 0 0 0 0.897212 0 0 0 0 0.970833 0 0 0 1 0"/>
<feBlend mode="normal" in2="BackgroundImageFix" result="effect1_dropShadow"/>
<feBlend mode="normal" in="SourceGraphic" in2="effect1_dropShadow" result="shape"/>
</filter>
<linearGradient id="paint0_linear" x1="39.3271" y1="9.9798" x2="55.3797" y2="40.823" gradientUnits="userSpaceOnUse">
<stop stop-color="#5E2EC4"/>
<stop offset="1" stop-color="#3263E1"/>
</linearGradient>
</defs>
</svg>
