<svg width="32" height="32" viewBox="0 0 32 32" fill="none" xmlns="http://www.w3.org/2000/svg">
<path d="M25.5987 25.5998H21.6234V19.3634C21.6234 17.8762 21.5969 15.9618 19.5558 15.9618C17.4854 15.9618 17.1685 17.5822 17.1685 19.2551V25.5994H13.1933V12.7748H17.0095V14.5274H17.063C17.4449 13.8733 17.9968 13.3351 18.6599 12.9703C19.3229 12.6055 20.0724 12.4277 20.8284 12.4558C24.8575 12.4558 25.6004 15.1106 25.6004 18.5644L25.5987 25.5998ZM8.70774 11.0219C7.43365 11.0221 6.4006 9.98756 6.40039 8.71126C6.40018 7.43495 7.43281 6.40011 8.70691 6.3999C9.981 6.39959 11.014 7.43411 11.0143 8.71042C11.0144 9.32332 10.7714 9.91117 10.3389 10.3447C9.90632 10.7781 9.31959 11.0217 8.70774 11.0219ZM10.6954 25.5999H6.71595V12.7748H10.6953L10.6954 25.5999Z" fill="#4151D7"/>
</svg>
