<svg width="106" height="24" viewBox="0 0 106 24" fill="none" xmlns="http://www.w3.org/2000/svg">
<path d="M37.928 17.1374H35.7972C35.7547 17.1374 35.7208 17.1031 35.7208 17.0607V5.26749C35.7208 5.22504 35.7547 5.19074 35.7972 5.19074H37.928C37.9705 5.19074 38.0048 5.22504 38.0048 5.26749V17.0607C38.0048 17.1031 37.9705 17.1374 37.928 17.1374Z" fill="url(#paint0_linear)"/>
<path d="M29.1053 17.1374H27.0152C26.9727 17.1374 26.9384 17.1031 26.9384 17.0607V5.26749C26.9384 5.22504 26.9727 5.19074 27.0152 5.19074H29.1053C29.1477 5.19074 29.1821 5.22504 29.1821 5.26749V17.0607C29.1821 17.1031 29.1477 17.1374 29.1053 17.1374Z" fill="url(#paint1_linear)"/>
<path d="M96.1286 5.05741L94.8611 5.05998C94.5818 5.06298 94.3574 5.29153 94.36 5.57111C94.3608 5.63671 94.3741 5.70103 94.3994 5.76149L98.5143 16.2594C98.6147 16.5308 98.6907 16.7507 99.0249 16.8254L100.515 16.8648C100.786 16.7644 100.958 16.1775 100.858 15.906L96.7019 5.367C96.6006 5.09557 96.4135 5.04969 96.1286 5.05741Z" fill="url(#paint2_linear)"/>
<path d="M69.075 6.48787L70.5884 5.33226C70.6909 5.25379 70.8372 5.27352 70.9158 5.376C70.9166 5.37686 70.9171 5.37686 70.9175 5.37815L78.4736 15.5062C78.5504 15.6107 78.5303 15.7574 78.4286 15.838L76.9143 16.9936C76.8113 17.0713 76.6646 17.051 76.5869 16.9482C76.5865 16.9477 76.5861 16.9473 76.5856 16.9465L69.0287 6.82019C68.9519 6.71556 68.972 6.56806 69.075 6.48787Z" fill="url(#paint3_linear)"/>
<path d="M29.0048 17.0844L27.4571 15.9256C27.3584 15.8544 27.3366 15.7172 27.4078 15.6191C27.4104 15.6161 27.4125 15.6127 27.4151 15.61L35.756 5.30439C35.8379 5.2062 35.9826 5.18905 36.0855 5.26494L37.6341 6.42355C37.7328 6.49644 37.7529 6.63494 37.68 6.73314C37.6779 6.73614 37.6753 6.73914 37.6731 6.74172L29.3322 17.0453C29.2507 17.143 29.107 17.1597 29.0048 17.0844Z" fill="url(#paint4_linear)"/>
<path d="M46.1741 6.83002C43.2521 6.83002 41.9858 8.99496 41.9858 11.2085C41.9858 13.569 43.4228 15.4904 46.1741 15.4904C48.9254 15.4904 50.313 13.3742 50.313 11.1596C50.313 8.94488 49.0957 6.82959 46.1741 6.82959V6.83002ZM46.1252 17.486C42.3274 17.486 39.8185 14.9561 39.8185 11.2085C39.8185 7.63187 42.3034 4.8344 46.1741 4.8344C50.0938 4.8344 52.5035 7.48608 52.5035 11.1365C52.5035 14.8095 49.8994 17.486 46.1252 17.486Z" fill="url(#paint5_linear)"/>
<path d="M60.5354 6.83002C57.6147 6.83002 56.348 8.99496 56.348 11.2085C56.348 13.569 57.785 15.4904 60.5354 15.4904C63.2858 15.4904 64.6756 13.3742 64.6756 11.1596C64.6756 8.94488 63.4579 6.82959 60.535 6.82959L60.5354 6.83002ZM60.4874 17.486C56.6887 17.486 54.1812 14.9561 54.1812 11.2085C54.1812 7.63187 56.6647 4.8344 60.5354 4.8344C64.456 4.8344 66.8657 7.48608 66.8657 11.1365C66.8657 14.8095 64.2607 17.486 60.4874 17.486Z" fill="url(#paint6_linear)"/>
<path d="M90.9963 9.94403C90.9963 8.143 89.6567 6.73184 87.4418 6.73184C85.2265 6.73184 83.717 7.99807 83.5217 9.94403H90.9963ZM87.4418 17.4856C83.4243 17.4856 81.233 14.8092 81.233 11.1356C81.233 7.7052 83.4981 4.858 87.4654 4.858C91.0217 4.858 93.0658 7.04786 93.0658 10.6249C93.0658 10.8665 93.0658 11.5246 93.0405 11.7677H83.3999C83.4243 13.8122 85.0068 15.4906 87.6362 15.4906C90.1695 15.4906 91.3379 14.6878 92.5063 13.934V16.0509C91.0002 17.0255 89.2354 17.5252 87.4418 17.4856Z" fill="url(#paint7_linear)"/>
<path d="M104.198 5.06681L105.652 5.09682C106.12 5.12298 106.014 5.51147 105.914 5.78246L101.757 16.9938C101.644 17.2704 101.328 17.4037 101.05 17.2922L99.9285 16.8768C99.6449 16.7803 99.4921 16.4736 99.5861 16.1894L103.599 5.36739C103.701 5.09597 103.899 5.05394 104.198 5.06681Z" fill="url(#paint8_linear)"/>
<path d="M100.982 16.7606L99.9684 16.2683C99.6599 16.2683 99.6823 16.804 99.6823 16.804L98.9717 18.6297C98.7091 19.3325 98.3658 20.0023 97.9483 20.6249C97.5373 21.2038 96.8542 21.5262 96.1462 21.4757C95.4412 21.4781 94.7431 21.3289 94.1016 21.0378V23.0322C94.8388 23.2757 95.6141 23.3829 96.3903 23.3489C97.778 23.3489 98.8018 22.8877 99.5548 21.8413C100.101 21.0112 100.55 20.1206 100.894 19.1879L101.897 16.6671C101.595 16.7172 101.289 16.7485 100.982 16.7606Z" fill="url(#paint9_linear)"/>
<path d="M70.8746 17.1374H68.7361C68.694 17.1374 68.6588 17.1031 68.6588 17.0607V5.35582C68.6588 5.3138 68.694 5.2795 68.7361 5.2795H70.8746C70.9175 5.2795 70.9518 5.3138 70.9518 5.35582V17.0607C70.9518 17.1031 70.9175 17.1374 70.8746 17.1374Z" fill="url(#paint10_linear)"/>
<path d="M78.8083 17.1374H76.6693C76.6269 17.1374 76.5925 17.1031 76.5925 17.0607V5.35582C76.5925 5.3138 76.6269 5.2795 76.6693 5.2795H78.8083C78.8508 5.2795 78.8851 5.3138 78.8851 5.35582V17.0607C78.8851 17.1031 78.8508 17.1374 78.8083 17.1374Z" fill="url(#paint11_linear)"/>
<path d="M20.4481 17.1374H18.3652C18.3228 17.1374 18.2885 17.1031 18.2885 17.0607V10.1991C18.2885 10.1571 18.3228 10.1227 18.3652 10.1227H20.4481C20.4906 10.1227 20.5249 10.1571 20.5249 10.1991V17.0607C20.5249 17.1031 20.4906 17.1374 20.4481 17.1374Z" fill="url(#paint12_linear)"/>
<path d="M6.25948 3.49055L9.72645 10.0641H2.79344L6.25948 3.49055ZM12.5383 11.0765C12.5653 10.854 12.5241 10.6284 12.4189 10.4299L7.28541 0.692233C7.05813 0.126651 6.41485 -0.14735 5.8488 0.0799115C5.5699 0.192256 5.34815 0.413087 5.2362 0.692233L0.100957 10.4321C-0.18095 11.1193 0.147726 11.9049 0.835414 12.1867C0.942384 12.2304 1.05433 12.2605 1.16847 12.2754H11.4415C12.0521 12.2754 12.5474 11.781 12.5474 11.1709V11.1705C12.5474 11.1369 12.5413 11.1091 12.5383 11.0765Z" fill="url(#paint13_linear)"/>
<path d="M10.8062 15.0489H8.46555C8.16249 15.0485 7.91628 15.2932 7.91542 15.5961V17.5873C7.91542 17.5873 7.9119 18.3387 7.73645 18.4844C7.56143 18.6301 7.58593 18.8022 7.12029 18.8022H5.14265C4.67804 18.8022 4.7025 18.6298 4.52654 18.4844C4.35023 18.339 4.34769 17.5873 4.34769 17.5873V15.5973C4.34718 15.2943 4.10132 15.0489 3.79791 15.0489H1.45809C1.15571 15.0485 0.909851 15.2938 0.909336 15.5961V17.9355C0.909336 18.2387 1.1549 18.4844 1.45809 18.4849H3.40792C3.40792 18.4849 4.02404 18.568 4.25016 18.8767C4.37503 19.1362 4.43518 19.4217 4.42532 19.709V21.6919C4.4248 21.9945 4.67032 22.2397 4.97269 22.2402H7.31389C7.61725 22.2408 7.86346 21.995 7.86346 21.6922V19.3939C7.87389 19.2126 7.92533 19.0355 8.0145 18.8767C8.24161 18.5689 8.85725 18.4849 8.85725 18.4849H10.8062C11.1096 18.4849 11.3553 18.2392 11.3553 17.936V15.5973C11.3558 15.2946 11.1104 15.0494 10.8074 15.0489" fill="url(#paint14_linear)"/>
<path d="M20.1527 17.0857L18.6316 15.9455C18.5334 15.8732 18.5123 15.7346 18.5853 15.636C18.5874 15.6338 18.5892 15.6313 18.5909 15.6286L26.9491 5.3044C27.0307 5.20706 27.1735 5.18948 27.2761 5.26452L28.8002 6.40468C28.898 6.47672 28.9195 6.61437 28.8474 6.71256C28.8452 6.71556 28.8431 6.7177 28.841 6.7207L20.4827 17.0458C20.4007 17.145 20.2558 17.1624 20.1527 17.0857Z" fill="url(#paint15_linear)"/>
<path d="M28.8894 6.69582C29.0228 6.53545 29.1825 6.64179 29.1825 6.77085V10.4229C29.182 10.5524 29.0769 10.6571 28.9478 10.6571H27.1726C27.0435 10.6571 26.9388 10.5524 26.9388 10.4229V9.07087" fill="url(#paint16_linear)"/>
<path d="M37.6911 6.69582C37.8259 6.53545 37.9846 6.64179 37.9846 6.77085V10.4229C37.9842 10.5521 37.8795 10.6566 37.7503 10.6571H35.9757C35.8461 10.6571 35.7414 10.5524 35.7405 10.4229V9.07087" fill="url(#paint17_linear)"/>
<path d="M21.0896 12.5372L20.5249 13.2345V16.9934L22.9101 14.0097L21.0896 12.5372Z" fill="url(#paint18_linear)"/>
<path d="M70.9518 6.49727C71.0531 6.01445 71.713 6.45525 71.7898 6.55731L73.9841 9.47706C74.0605 9.58675 74.0348 9.73734 73.9258 9.8144L72.4223 10.9457C72.3171 11.0284 72.1652 11.0112 72.0816 10.907L70.9531 9.4037" fill="url(#paint19_linear)"/>
<path d="M28.8894 6.69582C29.0228 6.53545 29.1825 6.64179 29.1825 6.77085V10.4229C29.182 10.5524 29.0769 10.6571 28.9478 10.6571H27.1726C27.0435 10.6571 26.9388 10.5524 26.9388 10.4229V9.07087" fill="url(#paint20_linear)"/>
<path d="M37.6911 6.69582C37.8259 6.53545 37.9846 6.64179 37.9846 6.77085V10.4229C37.9842 10.5521 37.8795 10.6566 37.7503 10.6571H35.9757C35.8461 10.6571 35.7414 10.5524 35.7405 10.4229V9.07087" fill="url(#paint21_linear)"/>
<path d="M21.0896 12.5372L20.5249 13.2345V16.9934L22.9101 14.0097L21.0896 12.5372Z" fill="url(#paint22_linear)"/>
<path d="M70.9518 6.49727C71.0531 6.01445 71.713 6.45525 71.7898 6.55731L73.9841 9.47706C74.0605 9.58675 74.0348 9.73734 73.9258 9.8144L72.4223 10.9457C72.3171 11.0284 72.1652 11.0112 72.0816 10.907L70.9531 9.4037" fill="url(#paint23_linear)"/>
<path d="M69.0081 23.8976C68.9797 23.8693 68.966 23.835 68.966 23.7948V19.8686C68.966 19.8246 68.9789 19.7886 69.0051 19.7603C69.0312 19.7323 69.0664 19.7182 69.1106 19.7182H71.7658C71.81 19.7182 71.8464 19.7323 71.8748 19.7603C71.9031 19.7886 71.9168 19.8246 71.9168 19.8686V20.2671C71.9168 20.3112 71.9031 20.3463 71.8748 20.3725C71.8464 20.3988 71.81 20.4115 71.7658 20.4115H69.7804V21.4793H71.6332C71.6778 21.4793 71.7134 21.4925 71.7422 21.5183C71.7705 21.5444 71.7842 21.58 71.7842 21.6242V21.9977C71.7842 22.0423 71.7705 22.0769 71.7422 22.1033C71.7134 22.1294 71.6778 22.1426 71.6332 22.1426H69.7804V23.2464H71.8143C71.8585 23.2464 71.8954 23.2605 71.9228 23.2883C71.9511 23.3166 71.9657 23.3526 71.9657 23.3973V23.7948C71.9657 23.8394 71.9511 23.8745 71.9228 23.9007C71.8954 23.9268 71.8585 23.9397 71.8143 23.9397H69.1106C69.0703 23.9397 69.036 23.9256 69.0081 23.8976Z" fill="url(#paint24_linear)"/>
<path d="M76.7509 23.2463C77.089 23.2463 77.3323 23.1709 77.4812 23.0203C77.6301 22.8694 77.7082 22.6212 77.7168 22.2754C77.7245 22.0337 77.7283 21.8832 77.7283 21.8232C77.7283 21.7584 77.7245 21.61 77.7168 21.3768C77.7082 21.047 77.6249 20.8034 77.4662 20.647C77.307 20.49 77.0585 20.4115 76.7209 20.4115H75.9725V23.2463H76.7509ZM75.1762 23.8976C75.1479 23.8693 75.1337 23.8355 75.1337 23.7948V19.8691C75.1337 19.8249 75.1466 19.7884 75.1727 19.7601C75.1989 19.7323 75.2341 19.7182 75.2787 19.7182H76.7509C77.9335 19.7182 78.5372 20.2649 78.5612 21.3587C78.5694 21.592 78.5736 21.7485 78.5736 21.829C78.5736 21.9054 78.5694 22.0602 78.5612 22.293C78.5453 22.8565 78.3947 23.2712 78.1085 23.5387C77.8232 23.8059 77.3804 23.9397 76.7809 23.9397H75.2787C75.2384 23.9397 75.2041 23.9255 75.1762 23.8976Z" fill="url(#paint25_linear)"/>
<path d="M82.2062 23.5841C81.9046 23.3066 81.7535 22.8863 81.7535 22.3233V19.869C81.7535 19.8248 81.7668 19.7882 81.793 19.7605C81.8192 19.7326 81.8544 19.7181 81.8986 19.7181H82.4478C82.4924 19.7181 82.5267 19.7326 82.5533 19.7605C82.5795 19.7882 82.5924 19.8248 82.5924 19.869V22.3233C82.5924 22.6454 82.6688 22.8873 82.8219 23.0501C82.9747 23.2131 83.1918 23.2947 83.4737 23.2947C83.7552 23.2947 83.9714 23.2131 84.1221 23.0501C84.2731 22.8873 84.3486 22.6454 84.3486 22.3233V19.869C84.3486 19.8248 84.3628 19.7882 84.3911 19.7605C84.419 19.7326 84.455 19.7181 84.4992 19.7181H85.0429C85.0871 19.7181 85.1218 19.7326 85.148 19.7605C85.1742 19.7882 85.1875 19.8248 85.1875 19.869V22.3233C85.1875 22.8863 85.0373 23.3066 84.7378 23.5841C84.4383 23.8615 84.0165 24 83.4737 24C82.9305 24 82.5079 23.8615 82.2062 23.5841Z" fill="url(#paint26_linear)"/>
<defs>
<linearGradient id="paint0_linear" x1="77.9542" y1="-1.51515" x2="81.0583" y2="27.5518" gradientUnits="userSpaceOnUse">
<stop stop-color="#5E2EC4"/>
<stop offset="1" stop-color="#3263E1"/>
</linearGradient>
<linearGradient id="paint1_linear" x1="77.9542" y1="-1.51515" x2="81.0583" y2="27.5518" gradientUnits="userSpaceOnUse">
<stop stop-color="#5E2EC4"/>
<stop offset="1" stop-color="#3263E1"/>
</linearGradient>
<linearGradient id="paint2_linear" x1="77.9542" y1="-1.51515" x2="81.0583" y2="27.5518" gradientUnits="userSpaceOnUse">
<stop stop-color="#5E2EC4"/>
<stop offset="1" stop-color="#3263E1"/>
</linearGradient>
<linearGradient id="paint3_linear" x1="77.9542" y1="-1.51515" x2="81.0583" y2="27.5518" gradientUnits="userSpaceOnUse">
<stop stop-color="#5E2EC4"/>
<stop offset="1" stop-color="#3263E1"/>
</linearGradient>
<linearGradient id="paint4_linear" x1="77.9542" y1="-1.51515" x2="81.0583" y2="27.5518" gradientUnits="userSpaceOnUse">
<stop stop-color="#5E2EC4"/>
<stop offset="1" stop-color="#3263E1"/>
</linearGradient>
<linearGradient id="paint5_linear" x1="77.9542" y1="-1.51515" x2="81.0583" y2="27.5518" gradientUnits="userSpaceOnUse">
<stop stop-color="#5E2EC4"/>
<stop offset="1" stop-color="#3263E1"/>
</linearGradient>
<linearGradient id="paint6_linear" x1="77.9542" y1="-1.51515" x2="81.0583" y2="27.5518" gradientUnits="userSpaceOnUse">
<stop stop-color="#5E2EC4"/>
<stop offset="1" stop-color="#3263E1"/>
</linearGradient>
<linearGradient id="paint7_linear" x1="77.9542" y1="-1.51515" x2="81.0583" y2="27.5518" gradientUnits="userSpaceOnUse">
<stop stop-color="#5E2EC4"/>
<stop offset="1" stop-color="#3263E1"/>
</linearGradient>
<linearGradient id="paint8_linear" x1="77.9542" y1="-1.51515" x2="81.0583" y2="27.5518" gradientUnits="userSpaceOnUse">
<stop stop-color="#5E2EC4"/>
<stop offset="1" stop-color="#3263E1"/>
</linearGradient>
<linearGradient id="paint9_linear" x1="77.9542" y1="-1.51515" x2="81.0583" y2="27.5518" gradientUnits="userSpaceOnUse">
<stop stop-color="#5E2EC4"/>
<stop offset="1" stop-color="#3263E1"/>
</linearGradient>
<linearGradient id="paint10_linear" x1="77.9542" y1="-1.51515" x2="81.0583" y2="27.5518" gradientUnits="userSpaceOnUse">
<stop stop-color="#5E2EC4"/>
<stop offset="1" stop-color="#3263E1"/>
</linearGradient>
<linearGradient id="paint11_linear" x1="77.9542" y1="-1.51515" x2="81.0583" y2="27.5518" gradientUnits="userSpaceOnUse">
<stop stop-color="#5E2EC4"/>
<stop offset="1" stop-color="#3263E1"/>
</linearGradient>
<linearGradient id="paint12_linear" x1="77.9542" y1="-1.51515" x2="81.0583" y2="27.5518" gradientUnits="userSpaceOnUse">
<stop stop-color="#5E2EC4"/>
<stop offset="1" stop-color="#3263E1"/>
</linearGradient>
<linearGradient id="paint13_linear" x1="77.9542" y1="-1.51515" x2="81.0583" y2="27.5518" gradientUnits="userSpaceOnUse">
<stop stop-color="#5E2EC4"/>
<stop offset="1" stop-color="#3263E1"/>
</linearGradient>
<linearGradient id="paint14_linear" x1="77.9542" y1="-1.51515" x2="81.0583" y2="27.5518" gradientUnits="userSpaceOnUse">
<stop stop-color="#5E2EC4"/>
<stop offset="1" stop-color="#3263E1"/>
</linearGradient>
<linearGradient id="paint15_linear" x1="77.9542" y1="-1.51515" x2="81.0583" y2="27.5518" gradientUnits="userSpaceOnUse">
<stop stop-color="#5E2EC4"/>
<stop offset="1" stop-color="#3263E1"/>
</linearGradient>
<linearGradient id="paint16_linear" x1="77.9542" y1="-1.51515" x2="81.0583" y2="27.5518" gradientUnits="userSpaceOnUse">
<stop stop-color="#5E2EC4"/>
<stop offset="1" stop-color="#3263E1"/>
</linearGradient>
<linearGradient id="paint17_linear" x1="77.9542" y1="-1.51515" x2="81.0583" y2="27.5518" gradientUnits="userSpaceOnUse">
<stop stop-color="#5E2EC4"/>
<stop offset="1" stop-color="#3263E1"/>
</linearGradient>
<linearGradient id="paint18_linear" x1="77.9542" y1="-1.51515" x2="81.0583" y2="27.5518" gradientUnits="userSpaceOnUse">
<stop stop-color="#5E2EC4"/>
<stop offset="1" stop-color="#3263E1"/>
</linearGradient>
<linearGradient id="paint19_linear" x1="77.9542" y1="-1.51515" x2="81.0583" y2="27.5518" gradientUnits="userSpaceOnUse">
<stop stop-color="#5E2EC4"/>
<stop offset="1" stop-color="#3263E1"/>
</linearGradient>
<linearGradient id="paint20_linear" x1="77.9542" y1="-1.51515" x2="81.0583" y2="27.5518" gradientUnits="userSpaceOnUse">
<stop stop-color="#5E2EC4"/>
<stop offset="1" stop-color="#3263E1"/>
</linearGradient>
<linearGradient id="paint21_linear" x1="77.9542" y1="-1.51515" x2="81.0583" y2="27.5518" gradientUnits="userSpaceOnUse">
<stop stop-color="#5E2EC4"/>
<stop offset="1" stop-color="#3263E1"/>
</linearGradient>
<linearGradient id="paint22_linear" x1="77.9542" y1="-1.51515" x2="81.0583" y2="27.5518" gradientUnits="userSpaceOnUse">
<stop stop-color="#5E2EC4"/>
<stop offset="1" stop-color="#3263E1"/>
</linearGradient>
<linearGradient id="paint23_linear" x1="77.9542" y1="-1.51515" x2="81.0583" y2="27.5518" gradientUnits="userSpaceOnUse">
<stop stop-color="#5E2EC4"/>
<stop offset="1" stop-color="#3263E1"/>
</linearGradient>
<linearGradient id="paint24_linear" x1="77.9542" y1="-1.51515" x2="81.0583" y2="27.5518" gradientUnits="userSpaceOnUse">
<stop stop-color="#5E2EC4"/>
<stop offset="1" stop-color="#3263E1"/>
</linearGradient>
<linearGradient id="paint25_linear" x1="77.9542" y1="-1.51515" x2="81.0583" y2="27.5518" gradientUnits="userSpaceOnUse">
<stop stop-color="#5E2EC4"/>
<stop offset="1" stop-color="#3263E1"/>
</linearGradient>
<linearGradient id="paint26_linear" x1="77.9542" y1="-1.51515" x2="81.0583" y2="27.5518" gradientUnits="userSpaceOnUse">
<stop stop-color="#5E2EC4"/>
<stop offset="1" stop-color="#3263E1"/>
</linearGradient>
</defs>
</svg>
