<svg width="356" height="356" viewBox="0 0 356 356" fill="none" xmlns="http://www.w3.org/2000/svg">
<path d="M150.903 120.416C147.881 119.899 144.678 119.351 141.414 119.158L140.882 119.067C81.6014 114.609 24.2311 161.796 13.6812 223.512C1.4283 295.192 66.5794 314.931 116.202 323.413C165.471 331.835 224.196 334.187 242.263 276.683C262.418 209.1 219.201 132.09 150.903 120.416Z" fill="#4151D7"/>
<path d="M242.264 276.683C224.196 334.187 165.471 331.835 116.203 323.413L150.903 120.416C219.202 132.09 262.419 209.1 242.264 276.683Z" fill="#3340AD"/>
<path d="M224.761 59.9391L197.752 110.85L109.892 95.8309L101.328 38.8393C100.714 35.9885 101.766 33.0554 103.762 31.0177C105.935 29.0105 108.847 28.0422 111.693 28.5288L139.972 33.3629C145.293 23.6536 156.531 17.8876 168.092 19.8638C179.653 21.84 188.158 30.981 190.13 41.9369L218.41 46.771C221.256 47.2576 223.68 49.1379 225.064 51.7532C226.269 54.338 226.287 57.454 224.761 59.9391Z" fill="#4151D7"/>
<path d="M224.76 59.939L197.752 110.85L153.821 103.34L168.091 19.8638C179.652 21.84 188.157 30.981 190.129 41.9369L218.409 46.771C221.255 47.2575 223.679 49.1379 225.063 51.7532C226.268 54.338 226.286 57.454 224.76 59.939Z" fill="#3340AD"/>
<path d="M155.929 250.574C153.952 262.135 145.02 270.493 134.064 272.465L132.696 280.468C131.845 285.45 127.264 288.693 122.283 287.841C117.301 286.99 114.058 282.409 114.91 277.428L116.248 269.602C106.569 264.103 100.594 253.014 102.57 241.453C103.421 236.474 108.18 233.259 112.984 234.08C117.965 234.931 121.208 239.514 120.356 244.493C119.535 249.296 122.926 254.085 127.729 254.906L127.908 254.937C132.92 255.61 137.321 252.337 138.143 247.533C138.994 242.554 135.899 238.181 130.948 237.151L130.77 237.12C116.186 234.627 106.158 220.464 108.651 205.881C110.658 194.141 119.979 185.666 130.902 183.872L133.152 170.711C134.004 165.73 138.584 162.487 143.566 163.338C148.547 164.19 151.79 168.77 150.938 173.752L148.689 186.913C158.367 192.412 163.986 203.441 162.009 215.002C161.188 219.805 156.578 223.226 151.596 222.374C146.793 221.553 143.402 216.764 144.223 211.961C145.074 206.982 141.98 202.608 137.029 201.578L136.85 201.548C132.047 200.727 127.288 203.942 126.437 208.921C125.616 213.724 129.007 218.513 133.81 219.334L133.988 219.365C148.722 222.067 158.452 235.812 155.929 250.574Z" fill="#FDD547"/>
<path d="M215.04 120.028C213.367 129.811 203.995 136.446 194.213 134.774L105.283 119.572C95.5002 117.9 88.8646 108.528 90.5368 98.7458C92.209 88.9635 101.581 82.3279 111.363 84.0001L200.294 99.202C210.076 100.874 216.712 110.246 215.04 120.028Z" fill="#FDD547"/>
<path d="M155.929 250.574C153.952 262.135 145.02 270.493 134.064 272.465L132.696 280.468C131.845 285.45 127.264 288.693 122.283 287.841L127.908 254.937C132.92 255.61 137.321 252.337 138.142 247.534C138.994 242.554 135.899 238.181 130.948 237.151L133.988 219.365C148.722 222.067 158.452 235.812 155.929 250.574Z" fill="#FDBF00"/>
<path d="M162.009 215.002C161.188 219.805 156.578 223.226 151.596 222.375C146.793 221.553 143.402 216.764 144.223 211.961C145.074 206.982 141.98 202.608 137.029 201.579L143.565 163.338C148.547 164.19 151.79 168.77 150.938 173.752L148.689 186.913C158.367 192.412 163.986 203.441 162.009 215.002Z" fill="#FDBF00"/>
<path d="M215.039 120.028C213.367 129.811 203.995 136.446 194.213 134.774L149.747 127.173L155.828 91.6011L200.293 99.202C210.076 100.874 216.711 110.246 215.039 120.028Z" fill="#FDBF00"/>
<path d="M316.551 219.47C316.551 229.394 308.431 237.514 298.507 237.514L252.795 255.558L207.685 237.514C197.76 237.514 189.641 229.394 189.641 219.47C189.641 209.546 197.76 201.426 207.685 201.426L298.507 201.426C308.431 201.426 316.551 209.546 316.551 219.47Z" fill="#FDD547"/>
<path d="M316.551 219.423C316.551 229.347 308.431 237.467 298.507 237.467L252.795 255.511L252.795 201.379L298.507 201.379C308.431 201.379 316.551 209.499 316.551 219.423Z" fill="#FDBF00"/>
<path d="M316.604 255.558C316.604 265.482 308.485 273.602 298.56 273.602L252.849 291.646L207.738 273.602C197.814 273.602 189.694 265.482 189.694 255.558C189.694 245.634 197.814 237.514 207.738 237.514L298.56 237.514C308.485 237.514 316.604 245.634 316.604 255.558Z" fill="#FDBF00"/>
<path d="M316.604 255.511C316.604 265.436 308.485 273.555 298.56 273.555L252.849 291.599L252.849 237.467L298.56 237.467C308.485 237.467 316.604 245.587 316.604 255.511Z" fill="#FF9100"/>
<path d="M316.658 291.646C316.658 301.571 308.538 309.69 298.614 309.69L252.902 327.734L207.792 309.69C197.868 309.69 189.748 301.571 189.748 291.646C189.748 281.722 197.868 273.602 207.792 273.602L298.614 273.602C308.538 273.602 316.658 281.722 316.658 291.646Z" fill="#FDD547"/>
<path d="M316.658 291.6C316.658 301.524 308.538 309.644 298.614 309.644L252.902 327.688L252.902 273.555L298.614 273.555C308.538 273.555 316.658 281.675 316.658 291.6Z" fill="#FDBF00"/>
<path d="M316.698 327.735C316.698 337.659 308.578 345.779 298.654 345.779L207.832 345.779C197.908 345.779 189.788 337.659 189.788 327.735C189.788 317.81 197.908 309.69 207.832 309.69L298.654 309.69C308.578 309.69 316.698 317.81 316.698 327.735Z" fill="#FDBF00"/>
<path d="M316.698 327.688C316.698 337.612 308.578 345.732 298.654 345.732L252.942 345.732L252.942 309.644L298.654 309.644C308.578 309.644 316.698 317.763 316.698 327.688Z" fill="#FF9100"/>
</svg>
