<svg width="103" height="21" viewBox="0 0 103 21" fill="none" xmlns="http://www.w3.org/2000/svg">
<path d="M27.0865 16L28.0468 13.1307H32.4218L33.3877 16H35.6377L31.5354 4.36364H28.9331L24.8365 16H27.0865ZM28.615 11.4375L30.1888 6.75H30.2797L31.8536 11.4375H28.615ZM37.0794 19.2727H39.1363V14.625H39.2215C39.5454 15.2614 40.2215 16.1534 41.7215 16.1534C43.7783 16.1534 45.3181 14.5227 45.3181 11.6477C45.3181 8.73864 43.7329 7.15909 41.7158 7.15909C40.176 7.15909 39.534 8.08523 39.2215 8.71591H39.1022V7.27273H37.0794V19.2727ZM39.0965 11.6364C39.0965 9.94318 39.8238 8.84659 41.1476 8.84659C42.5169 8.84659 43.2215 10.0114 43.2215 11.6364C43.2215 13.2727 42.5056 14.4659 41.1476 14.4659C39.8351 14.4659 39.0965 13.3295 39.0965 11.6364ZM47.0794 19.2727H49.1363V14.625H49.2215C49.5454 15.2614 50.2215 16.1534 51.7215 16.1534C53.7783 16.1534 55.3181 14.5227 55.3181 11.6477C55.3181 8.73864 53.7329 7.15909 51.7158 7.15909C50.176 7.15909 49.534 8.08523 49.2215 8.71591H49.1022V7.27273H47.0794V19.2727ZM49.0965 11.6364C49.0965 9.94318 49.8238 8.84659 51.1476 8.84659C52.5169 8.84659 53.2215 10.0114 53.2215 11.6364C53.2215 13.2727 52.5056 14.4659 51.1476 14.4659C49.8351 14.4659 49.0965 13.3295 49.0965 11.6364ZM67.463 7.5625H69.4914C69.4516 5.59659 67.7755 4.20455 65.2982 4.20455C62.855 4.20455 61.0198 5.57955 61.0255 7.63636C61.0255 9.30682 62.213 10.267 64.1277 10.7614L65.4516 11.1023C66.7073 11.4205 67.5368 11.8125 67.5425 12.7159C67.5368 13.7102 66.5937 14.375 65.2187 14.375C63.9005 14.375 62.8777 13.7841 62.7925 12.5625H60.7187C60.8039 14.875 62.5255 16.1761 65.2357 16.1761C68.0255 16.1761 69.6448 14.7841 69.6505 12.733C69.6448 10.7159 67.98 9.79545 66.23 9.38068L65.1391 9.10795C64.1846 8.88068 63.1505 8.47727 63.1618 7.50568C63.1675 6.63068 63.9516 5.98864 65.2698 5.98864C66.5255 5.98864 67.355 6.57386 67.463 7.5625ZM75.7968 7.27273H74.0752V5.18182H72.0184V7.27273H70.7797V8.86364H72.0184V13.7159C72.007 15.358 73.2002 16.1648 74.7456 16.1193C75.3309 16.1023 75.7343 15.9886 75.9559 15.9148L75.6093 14.3068C75.4956 14.3352 75.2627 14.3864 75.007 14.3864C74.49 14.3864 74.0752 14.2045 74.0752 13.375V8.86364H75.7968V7.27273ZM81.23 16.1705C83.7868 16.1705 85.4118 14.3693 85.4118 11.6705C85.4118 8.96591 83.7868 7.15909 81.23 7.15909C78.6732 7.15909 77.0482 8.96591 77.0482 11.6705C77.0482 14.3693 78.6732 16.1705 81.23 16.1705ZM81.2414 14.5227C79.8266 14.5227 79.1334 13.2614 79.1334 11.6648C79.1334 10.0682 79.8266 8.78977 81.2414 8.78977C82.6334 8.78977 83.3266 10.0682 83.3266 11.6648C83.3266 13.2614 82.6334 14.5227 81.2414 14.5227ZM87.1576 16H89.2144V10.8693C89.2144 9.76136 90.0496 8.97727 91.1803 8.97727C91.5269 8.97727 91.9587 9.03977 92.1348 9.09659V7.20455C91.9473 7.17045 91.6235 7.14773 91.3962 7.14773C90.3962 7.14773 89.561 7.71591 89.2428 8.72727H89.1519V7.27273H87.1576V16ZM97.0056 16.1705C99.0397 16.1705 100.437 15.1761 100.801 13.6591L98.8806 13.4432C98.6022 14.1818 97.9204 14.5682 97.034 14.5682C95.7044 14.5682 94.8238 13.6932 94.8067 12.1989H100.886V11.5682C100.886 8.50568 99.0454 7.15909 96.8976 7.15909C94.3976 7.15909 92.7669 8.99432 92.7669 11.6875C92.7669 14.4261 94.3749 16.1705 97.0056 16.1705ZM94.8124 10.8125C94.8749 9.69886 95.6988 8.76136 96.926 8.76136C98.1079 8.76136 98.9033 9.625 98.9147 10.8125H94.8124Z" fill="#232931"/>
<path d="M15.671 15.812C15.3941 16.4575 15.052 17.073 14.65 17.649C14.113 18.416 13.672 18.946 13.334 19.241C12.809 19.723 12.245 19.971 11.642 19.985C11.21 19.985 10.688 19.862 10.08 19.612C9.47 19.363 8.91 19.241 8.397 19.241C7.86 19.241 7.284 19.363 6.667 19.612C6.051 19.862 5.553 19.993 5.172 20.005C4.595 20.03 4.018 19.776 3.443 19.241C3.076 18.921 2.617 18.371 2.066 17.593C1.476 16.764 0.991 15.799 0.611 14.702C0.204 13.515 0 12.367 0 11.255C0 9.982 0.275 8.883 0.826 7.963C1.24275 7.24047 1.83855 6.63743 2.556 6.212C3.26347 5.78767 4.07109 5.55919 4.896 5.55C5.356 5.55 5.959 5.692 6.706 5.972C7.453 6.252 7.933 6.394 8.142 6.394C8.3 6.394 8.831 6.227 9.735 5.896C10.588 5.589 11.308 5.462 11.898 5.512C13.498 5.641 14.699 6.271 15.498 7.407C14.068 8.274 13.361 9.487 13.375 11.044C13.387 12.257 13.828 13.266 14.692 14.067C15.074 14.4325 15.5197 14.725 16.007 14.93C15.901 15.237 15.789 15.53 15.671 15.812ZM12.004 1.381C12.004 2.331 11.656 3.219 10.965 4.04C10.129 5.016 9.119 5.581 8.024 5.492C8.00968 5.37254 8.00266 5.25232 8.003 5.132C8.003 4.219 8.399 3.243 9.106 2.444C9.458 2.04 9.906 1.703 10.449 1.435C10.991 1.171 11.503 1.025 11.985 1C11.998 1.128 12.004 1.255 12.004 1.381Z" fill="#232931"/>
</svg>
