<svg width="103" height="21" viewBox="0 0 103 21" fill="none" xmlns="http://www.w3.org/2000/svg">
<path d="M27.0864 16L28.0466 13.1307H32.4216L33.3875 16H35.6375L31.5352 4.36364H28.933L24.8364 16H27.0864ZM28.6148 11.4375L30.1887 6.75H30.2796L31.8534 11.4375H28.6148ZM37.0793 19.2727H39.1361V14.625H39.2213C39.5452 15.2614 40.2213 16.1534 41.7213 16.1534C43.7781 16.1534 45.3179 14.5227 45.3179 11.6477C45.3179 8.73864 43.7327 7.15909 41.7156 7.15909C40.1759 7.15909 39.5338 8.08523 39.2213 8.71591H39.102V7.27273H37.0793V19.2727ZM39.0963 11.6364C39.0963 9.94318 39.8236 8.84659 41.1475 8.84659C42.5168 8.84659 43.2213 10.0114 43.2213 11.6364C43.2213 13.2727 42.5054 14.4659 41.1475 14.4659C39.835 14.4659 39.0963 13.3295 39.0963 11.6364ZM47.0793 19.2727H49.1361V14.625H49.2213C49.5452 15.2614 50.2213 16.1534 51.7213 16.1534C53.7781 16.1534 55.3179 14.5227 55.3179 11.6477C55.3179 8.73864 53.7327 7.15909 51.7156 7.15909C50.1759 7.15909 49.5338 8.08523 49.2213 8.71591H49.102V7.27273H47.0793V19.2727ZM49.0963 11.6364C49.0963 9.94318 49.8236 8.84659 51.1475 8.84659C52.5168 8.84659 53.2213 10.0114 53.2213 11.6364C53.2213 13.2727 52.5054 14.4659 51.1475 14.4659C49.835 14.4659 49.0963 13.3295 49.0963 11.6364ZM67.4628 7.5625H69.4912C69.4514 5.59659 67.7753 4.20455 65.298 4.20455C62.8548 4.20455 61.0196 5.57955 61.0253 7.63636C61.0253 9.30682 62.2128 10.267 64.1276 10.7614L65.4514 11.1023C66.7071 11.4205 67.5367 11.8125 67.5423 12.7159C67.5367 13.7102 66.5935 14.375 65.2185 14.375C63.9003 14.375 62.8776 13.7841 62.7923 12.5625H60.7185C60.8037 14.875 62.5253 16.1761 65.2355 16.1761C68.0253 16.1761 69.6446 14.7841 69.6503 12.733C69.6446 10.7159 67.9798 9.79545 66.2298 9.38068L65.1389 9.10795C64.1844 8.88068 63.1503 8.47727 63.1617 7.50568C63.1673 6.63068 63.9514 5.98864 65.2696 5.98864C66.5253 5.98864 67.3548 6.57386 67.4628 7.5625ZM75.7966 7.27273H74.075V5.18182H72.0182V7.27273H70.7796V8.86364H72.0182V13.7159C72.0068 15.358 73.2 16.1648 74.7455 16.1193C75.3307 16.1023 75.7341 15.9886 75.9557 15.9148L75.6091 14.3068C75.4955 14.3352 75.2625 14.3864 75.0068 14.3864C74.4898 14.3864 74.075 14.2045 74.075 13.375V8.86364H75.7966V7.27273ZM81.2298 16.1705C83.7867 16.1705 85.4117 14.3693 85.4117 11.6705C85.4117 8.96591 83.7867 7.15909 81.2298 7.15909C78.673 7.15909 77.048 8.96591 77.048 11.6705C77.048 14.3693 78.673 16.1705 81.2298 16.1705ZM81.2412 14.5227C79.8264 14.5227 79.1333 13.2614 79.1333 11.6648C79.1333 10.0682 79.8264 8.78977 81.2412 8.78977C82.6333 8.78977 83.3264 10.0682 83.3264 11.6648C83.3264 13.2614 82.6333 14.5227 81.2412 14.5227ZM87.1574 16H89.2142V10.8693C89.2142 9.76136 90.0494 8.97727 91.1801 8.97727C91.5267 8.97727 91.9585 9.03977 92.1347 9.09659V7.20455C91.9472 7.17045 91.6233 7.14773 91.396 7.14773C90.396 7.14773 89.5608 7.71591 89.2426 8.72727H89.1517V7.27273H87.1574V16ZM97.0054 16.1705C99.0395 16.1705 100.437 15.1761 100.801 13.6591L98.8804 13.4432C98.602 14.1818 97.9202 14.5682 97.0338 14.5682C95.7043 14.5682 94.8236 13.6932 94.8066 12.1989H100.886V11.5682C100.886 8.50568 99.0452 7.15909 96.8975 7.15909C94.3975 7.15909 92.7668 8.99432 92.7668 11.6875C92.7668 14.4261 94.3747 16.1705 97.0054 16.1705ZM94.8122 10.8125C94.8747 9.69886 95.6986 8.76136 96.9259 8.76136C98.1077 8.76136 98.9031 9.625 98.9145 10.8125H94.8122Z" fill="#F0F3F7"/>
<path d="M15.671 15.812C15.3941 16.4575 15.052 17.073 14.65 17.649C14.113 18.416 13.672 18.946 13.334 19.241C12.809 19.723 12.245 19.971 11.642 19.985C11.21 19.985 10.688 19.862 10.08 19.612C9.47 19.363 8.91 19.241 8.397 19.241C7.86 19.241 7.284 19.363 6.667 19.612C6.051 19.862 5.553 19.993 5.172 20.005C4.595 20.03 4.018 19.776 3.443 19.241C3.076 18.921 2.617 18.371 2.066 17.593C1.476 16.764 0.991 15.799 0.611 14.702C0.204 13.515 0 12.367 0 11.255C0 9.982 0.275 8.883 0.826 7.963C1.24275 7.24047 1.83855 6.63743 2.556 6.212C3.26347 5.78767 4.07109 5.55919 4.896 5.55C5.356 5.55 5.959 5.692 6.706 5.972C7.453 6.252 7.933 6.394 8.142 6.394C8.3 6.394 8.831 6.227 9.735 5.896C10.588 5.589 11.308 5.462 11.898 5.512C13.498 5.641 14.699 6.271 15.498 7.407C14.068 8.274 13.361 9.487 13.375 11.044C13.387 12.257 13.828 13.266 14.692 14.067C15.074 14.4325 15.5197 14.725 16.007 14.93C15.901 15.237 15.789 15.53 15.671 15.812ZM12.004 1.381C12.004 2.331 11.656 3.219 10.965 4.04C10.129 5.016 9.119 5.581 8.024 5.492C8.00968 5.37254 8.00266 5.25232 8.003 5.132C8.003 4.219 8.399 3.243 9.106 2.444C9.458 2.04 9.906 1.703 10.449 1.435C10.991 1.171 11.503 1.025 11.985 1C11.998 1.128 12.004 1.255 12.004 1.381Z" fill="#F0F3F7"/>
</svg>
