<svg width="72" height="72" viewBox="0 0 72 72" fill="none" xmlns="http://www.w3.org/2000/svg">
<g filter="url(#filter0_d)">
<circle cx="36" cy="34" r="28" fill="#F2F4F7"/>
</g>
<path d="M50.1249 35.0991V32.1253C50.1249 31.6075 49.7051 31.1878 49.1874 31.1878C47.2506 31.1878 45.445 31.3512 43.7391 31.685C42.7446 30.7246 41.5323 30.0279 40.2195 29.6471C41.651 28.4422 42.5624 26.6382 42.5624 24.6251C42.5624 20.972 39.6185 18 35.9999 18C32.3814 18 29.4374 20.972 29.4374 24.6251C29.4374 26.6382 30.3488 28.4422 31.7804 29.647C30.4675 30.0279 29.2552 30.7246 28.2608 31.6849C26.5549 31.3512 24.7492 31.1877 22.8125 31.1877C22.2947 31.1877 21.875 31.6075 21.875 32.1252V35.099C20.7838 35.486 20 36.5281 20 37.7503V39.6254C20 40.8476 20.7838 41.8897 21.875 42.2767V45.2505C21.875 45.7683 22.2947 46.188 22.8125 46.188C27.7143 46.188 31.7395 47.3495 35.48 49.8432C35.7934 50.052 36.2063 50.0525 36.52 49.8432C40.2605 47.3495 44.2856 46.188 49.1875 46.188C49.7053 46.188 50.125 45.7683 50.125 45.2505V42.2767C51.2162 41.8897 52 40.8476 52 39.6254V37.7503C51.9999 36.5282 51.2161 35.4861 50.1249 35.0991ZM31.3124 24.6251C31.3124 22.0059 33.4152 19.875 35.9999 19.875C38.5846 19.875 40.6874 22.0059 40.6874 24.6251C40.6874 27.2099 38.5846 29.3127 35.9999 29.3127C33.4152 29.3127 31.3124 27.2099 31.3124 24.6251ZM22.8124 40.563C22.2955 40.563 21.8749 40.1424 21.8749 39.6254V37.7504C21.8749 37.2335 22.2955 36.8129 22.8124 36.8129C23.3294 36.8129 23.7499 37.2335 23.7499 37.7504V39.6254C23.7499 40.1424 23.3294 40.563 22.8124 40.563ZM35.0624 47.3809C31.6591 45.4346 28.007 44.4509 23.7499 44.3265V42.2767C24.8411 41.8897 25.6249 40.8477 25.6249 39.6254V37.7504C25.6249 36.5282 24.8411 35.4861 23.7499 35.0991V33.0761C28.155 33.2025 31.6958 34.2398 35.0624 36.3834V47.3809ZM35.9999 34.759C34.2695 33.6672 32.4684 32.8359 30.5457 32.2517C31.6022 31.565 32.8459 31.1878 34.1249 31.1878H37.8749C39.154 31.1878 40.3976 31.565 41.4541 32.2517C39.5314 32.8359 37.7302 33.6672 35.9999 34.759ZM48.2499 44.3265C43.9928 44.4509 40.3406 45.4348 36.9374 47.381V36.3841C40.3041 34.2404 43.8446 33.2024 48.2499 33.0761V35.0991C47.1587 35.4861 46.3749 36.5282 46.3749 37.7504V39.6254C46.3749 40.8477 47.1587 41.8897 48.2499 42.2767V44.3265ZM50.1249 39.6254C50.1249 40.1424 49.7043 40.563 49.1874 40.563C48.6704 40.563 48.2499 40.1424 48.2499 39.6254V37.7504C48.2499 37.2335 48.6704 36.8129 49.1874 36.8129C49.7043 36.8129 50.1249 37.2335 50.1249 37.7504V39.6254Z" fill="url(#paint0_linear)"/>
<defs>
<filter id="filter0_d" x="0" y="0" width="72" height="72" filterUnits="userSpaceOnUse" color-interpolation-filters="sRGB">
<feFlood flood-opacity="0" result="BackgroundImageFix"/>
<feColorMatrix in="SourceAlpha" type="matrix" values="0 0 0 0 0 0 0 0 0 0 0 0 0 0 0 0 0 0 127 0"/>
<feOffset dy="2"/>
<feGaussianBlur stdDeviation="4"/>
<feColorMatrix type="matrix" values="0 0 0 0 0.726042 0 0 0 0 0.794375 0 0 0 0 0.854167 0 0 0 1 0"/>
<feBlend mode="normal" in2="BackgroundImageFix" result="effect1_dropShadow"/>
<feBlend mode="normal" in="SourceGraphic" in2="effect1_dropShadow" result="shape"/>
</filter>
<linearGradient id="paint0_linear" x1="43.5333" y1="15.9798" x2="58.6571" y2="48.0444" gradientUnits="userSpaceOnUse">
<stop stop-color="#5E2EC4"/>
<stop offset="1" stop-color="#3263E1"/>
</linearGradient>
</defs>
</svg>
