<svg width="166" height="127" viewBox="0 0 166 127" fill="none" xmlns="http://www.w3.org/2000/svg">
<path d="M58.1517 83.7246C55.9425 83.7246 54.1319 81.9308 54.3068 79.7286C54.6148 75.8509 55.3814 72.2371 56.6066 68.8873C58.3602 64.2949 62.2765 60.2911 68.3555 56.8762C69.8752 55.9342 71.8626 54.8155 74.3175 53.5202C76.7725 52.2248 79.2275 50.694 81.6825 48.9277C84.2543 47.1613 86.3586 45.1595 87.9953 42.9221C89.7488 40.567 90.6256 37.9764 90.6256 35.1502C90.6256 31.2643 89.2227 28.2615 86.4171 26.1419C83.6114 23.9045 80.3965 22.7858 76.7725 22.7858C73.6161 22.7858 70.9273 23.4924 68.7062 24.9054C66.485 26.3185 64.5561 28.026 62.9194 30.0278C62.3922 30.7222 61.8932 31.3954 61.4223 32.0473C60.0869 33.8959 57.5035 34.4064 55.6389 33.0935L43.6383 24.6435C42.0987 23.5594 41.5031 21.5361 42.3767 19.868C45.4131 14.0707 49.7472 9.44987 55.3791 6.00556C62.0427 2.00185 69.5245 0 77.8246 0C83.6698 0 89.4566 1.17756 95.1848 3.53268C100.913 5.88781 105.648 9.65601 109.389 14.8373C113.13 20.0185 115 26.8484 115 35.3268C115 42.0389 113.597 47.6912 110.791 52.2837C108.103 56.7585 104.07 60.7033 98.6919 64.1182C95.4186 66.2378 92.1453 68.1808 88.872 69.9472C85.5987 71.5957 82.8515 73.4798 80.6303 75.5994C79.3661 76.8059 78.4616 78.2031 77.917 79.791C77.2002 81.8807 75.5077 83.7246 73.2986 83.7246H58.1517ZM62.6777 127C58.2594 127 54.6777 123.418 54.6777 119V108.505C54.6777 104.087 58.2594 100.505 62.6777 100.505H69.6493C74.0676 100.505 77.6493 104.087 77.6493 108.505V119C77.6493 123.418 74.0676 127 69.6493 127H62.6777Z" fill="#F0F3F7"/>
<path opacity="0.5" d="M147.799 62.9847C145.589 62.9847 143.728 61.1672 144.241 59.0183C144.365 58.4947 144.517 57.9865 144.694 57.4937C145.334 55.7942 146.763 54.3125 148.981 53.0487C149.536 52.7 150.261 52.286 151.156 51.8067C152.052 51.3273 152.948 50.7608 153.844 50.1071C154.782 49.4534 155.55 48.7126 156.147 47.8846C156.787 47.013 157.107 46.0542 157.107 45.0083C157.107 43.5702 156.595 42.459 155.571 41.6745C154.547 40.8465 153.374 40.4325 152.052 40.4325C150.9 40.4325 149.919 40.694 149.109 41.217C148.299 41.7399 147.595 42.3718 146.998 43.1127C146.195 44.1847 144.671 44.4829 143.582 43.7047L141.594 42.2854C140.076 41.2013 139.453 39.1641 140.545 37.6519C141.534 36.2832 142.767 35.14 144.246 34.2225C146.678 32.7408 149.408 32 152.436 32C154.569 32 156.68 32.4358 158.77 33.3074C160.86 34.179 162.588 35.5735 163.953 37.491C165.318 39.4084 166 41.936 166 45.0737C166 47.5577 165.488 49.6495 164.464 51.3491C163.483 53.0051 162.012 54.465 160.05 55.7288C158.855 56.5132 157.661 57.2323 156.467 57.886C155.273 58.4961 154.27 59.1933 153.46 59.9777C152.135 61.2598 150.75 62.9847 148.906 62.9847H147.799ZM148.181 79C145.867 79 143.991 77.1237 143.991 74.8092V73.3855C143.991 71.071 145.867 69.1947 148.181 69.1947C150.496 69.1947 152.372 71.071 152.372 73.3855V74.8092C152.372 77.1237 150.496 79 148.181 79Z" fill="#F0F3F7"/>
<path opacity="0.7" d="M7.35071 73.7107C5.45043 73.7107 3.84732 72.1461 4.29861 70.3002C4.39458 69.9077 4.50831 69.5258 4.63981 69.1544C5.16114 67.7441 6.32543 66.5146 8.1327 65.4659C8.58452 65.1766 9.17535 64.8331 9.90521 64.4353C10.6351 64.0376 11.3649 63.5675 12.0948 63.025C12.8594 62.4826 13.485 61.8679 13.9716 61.1808C14.4929 60.4576 14.7536 59.662 14.7536 58.7942C14.7536 57.6008 14.3365 56.6787 13.5024 56.0278C12.6682 55.3408 11.7125 54.9972 10.6351 54.9972C9.69668 54.9972 8.89731 55.2142 8.23697 55.6481C7.57662 56.0821 7.00316 56.6064 6.51659 57.2211C5.8659 58.1065 4.61172 58.3514 3.72316 57.7051L2.26176 56.6422C0.933951 55.6765 0.38397 53.8826 1.35399 52.558C2.14299 51.4805 3.11662 50.5759 4.27488 49.8442C6.25592 48.6147 8.48025 48 10.9479 48C12.6856 48 14.406 48.3616 16.109 49.0848C17.812 49.8081 19.2196 50.9652 20.3318 52.5563C21.4439 54.1474 22 56.2448 22 58.8484C22 60.9096 21.5829 62.6453 20.7488 64.0556C19.9494 65.4298 18.7504 66.6412 17.1517 67.6898C16.1785 68.3407 15.2054 68.9374 14.2322 69.4798C13.2591 69.9861 12.4423 70.5647 11.782 71.2156C10.6962 72.2859 9.55549 73.7107 8.03082 73.7107H7.35071ZM7.48104 87C5.59516 87 4.06635 85.4712 4.06635 83.5853V82.2784C4.06635 80.3925 5.59516 78.8637 7.48104 78.8637C9.36693 78.8637 10.8957 80.3925 10.8957 82.2784V83.5853C10.8957 85.4712 9.36693 87 7.48104 87Z" fill="#F0F3F7"/>
</svg>
