<svg width="32" height="32" viewBox="0 0 32 32" fill="none" xmlns="http://www.w3.org/2000/svg">
<path d="M22.8276 9.20206C21.0489 7.38588 18.59 6.3999 16.0788 6.3999C10.7427 6.3999 6.45274 10.7069 6.50501 15.948C6.50501 17.6085 6.97586 19.2172 7.76064 20.6702L6.40039 25.5999L11.475 24.3026C12.8876 25.081 14.457 25.4443 16.0266 25.4443C21.3105 25.4443 25.6004 21.1372 25.6004 15.8962C25.6004 13.3534 24.6064 10.9664 22.8277 9.20206H22.8276ZM16.0788 23.8356C14.6663 23.8356 13.2538 23.4725 12.0505 22.746L11.7366 22.5903L8.70233 23.3686L9.48704 20.4108L9.2778 20.0994C6.97586 16.4152 8.07451 11.5372 11.8413 9.25391C15.608 6.9707 20.4734 8.06046 22.7753 11.7967C25.0772 15.5329 23.9785 20.3588 20.2119 22.6421C19.0085 23.4205 17.5437 23.8356 16.0788 23.8356V23.8356ZM20.6826 18.0757L20.1072 17.8162C20.1072 17.8162 19.2702 17.453 18.747 17.1935C18.6946 17.1935 18.6424 17.1416 18.59 17.1416C18.4331 17.1416 18.3284 17.1935 18.2238 17.2454C18.2238 17.2454 18.1715 17.2973 17.4391 18.1276C17.3867 18.2313 17.2821 18.2833 17.1775 18.2833H17.1251C17.0729 18.2833 16.9683 18.2313 16.9159 18.1795L16.6543 18.0757C16.0788 17.8162 15.5557 17.5048 15.1372 17.0897C15.0325 16.986 14.8756 16.8822 14.7709 16.7784C14.4047 16.4152 14.0385 16 13.777 15.533L13.7246 15.4292C13.6724 15.3772 13.6724 15.3254 13.62 15.2216C13.62 15.1178 13.62 15.0141 13.6724 14.9621C13.6724 14.9621 13.8816 14.7027 14.0385 14.547C14.1432 14.4432 14.1955 14.2876 14.3001 14.1838C14.4047 14.0281 14.4571 13.8205 14.4047 13.6648C14.3524 13.4054 13.7246 12.0043 13.5677 11.693C13.463 11.5373 13.3585 11.4854 13.2015 11.4335H12.626C12.5213 11.4335 12.4168 11.4854 12.3121 11.4854L12.2597 11.5373C12.1551 11.5892 12.0505 11.693 11.9459 11.7448C11.8413 11.8487 11.7889 11.9524 11.6843 12.0562C11.3181 12.5232 11.1088 13.094 11.1088 13.6648C11.1088 14.0799 11.2134 14.4951 11.3704 14.8584L11.4228 15.0141C11.8936 16 12.5213 16.8822 13.3585 17.6605L13.5677 17.8681C13.7246 18.0238 13.8816 18.1276 13.9862 18.2832C15.0849 19.2173 16.3404 19.8919 17.753 20.2551C17.9099 20.307 18.1192 20.307 18.2762 20.3589H18.7993C19.0609 20.3589 19.3747 20.2551 19.5841 20.1514C19.741 20.0476 19.8456 20.0476 19.9502 19.9438L20.0549 19.84C20.1595 19.7362 20.2641 19.6843 20.3688 19.5806C20.4734 19.4768 20.578 19.373 20.6304 19.2692C20.735 19.0616 20.7873 18.8021 20.8396 18.5427V18.1795C20.8396 18.1795 20.7873 18.1276 20.6826 18.0757Z" fill="#4151D7"/>
</svg>
