<svg width="25" height="45" viewBox="0 0 25 45" fill="none" xmlns="http://www.w3.org/2000/svg">
<path d="M12.4522 6.95837L19.3492 20.0627H5.55709L12.4522 6.95837ZM24.9429 22.0808C24.9966 21.6374 24.9146 21.1876 24.7054 20.7919L14.4931 1.37996C14.041 0.252478 12.7613 -0.293741 11.6352 0.159302C11.0804 0.383259 10.6393 0.823483 10.4166 1.37996L0.200837 20.7963C-0.35997 22.1662 0.293876 23.7323 1.66192 24.2939C1.87472 24.381 2.09742 24.4412 2.32448 24.4709H22.7609C23.9756 24.4709 24.9609 23.4852 24.9609 22.2691C24.9609 22.2022 24.9489 22.1459 24.9429 22.0808Z" fill="url(#paint0_linear)"/>
<path d="M21.4971 29.9997H16.8408C16.2379 29.999 15.7481 30.4868 15.7464 31.0906V35.06C15.7464 35.06 15.7394 36.558 15.3904 36.8484C15.0422 37.1389 15.091 37.4818 14.1646 37.4818H10.2305C9.3062 37.4818 9.35486 37.1383 9.0048 36.8484C8.65406 36.5586 8.64902 35.06 8.64902 35.06V31.0929C8.648 30.4889 8.15889 29.9997 7.55532 29.9997H2.90063C2.2991 29.999 1.81 30.4879 1.80897 31.0906V35.7542C1.80897 36.3586 2.29748 36.8484 2.90063 36.8494H6.7795C6.7795 36.8494 8.00516 37.015 8.455 37.6304C8.70339 38.1476 8.82307 38.7169 8.80344 39.2896V43.2424C8.80241 43.8457 9.29083 44.3346 9.89235 44.3356H14.5498C15.1533 44.3366 15.6431 43.8467 15.6431 43.2431V38.6615C15.6638 38.3 15.7661 37.947 15.9435 37.6304C16.3953 37.0167 17.6201 36.8494 17.6201 36.8494H21.4971C22.1007 36.8494 22.5895 36.3596 22.5895 35.7552V31.0929C22.5905 30.4895 22.1023 30.0007 21.4995 29.9997" fill="url(#paint1_linear)"/>
<defs>
<linearGradient id="paint0_linear" x1="18.3567" y1="-2.79896" x2="45.0909" y2="29.1121" gradientUnits="userSpaceOnUse">
<stop stop-color="#5E2EC4"/>
<stop offset="1" stop-color="#3263E1"/>
</linearGradient>
<linearGradient id="paint1_linear" x1="18.3567" y1="-2.79896" x2="45.0909" y2="29.1121" gradientUnits="userSpaceOnUse">
<stop stop-color="#5E2EC4"/>
<stop offset="1" stop-color="#3263E1"/>
</linearGradient>
</defs>
</svg>
