<svg width="64" height="64" viewBox="0 0 64 64" fill="none" xmlns="http://www.w3.org/2000/svg">
<g filter="url(#filter0_d)">
<circle cx="32" cy="28" r="24" fill="#F8F9FB"/>
</g>
<path d="M40.3264 39.25H46.25V19.8404H46.1964V37.3846V37.3854L40.3264 39.25ZM40.3264 39.25C40.3446 39.2462 40.3628 39.2425 40.3812 39.2388C40.5872 39.1977 40.7949 39.161 41.0118 39.1227L41.0497 39.1161L41.0502 39.116C41.1018 39.1068 41.1503 39.098 41.197 39.0895C41.2957 39.0716 41.3867 39.0551 41.4823 39.0397L40.3264 39.25ZM24.1392 38.3854L24.0223 38.3648L24.0218 38.3647C23.9122 38.3454 23.8026 38.326 23.6929 38.3063M24.1392 38.3854L22.5608 38.146C22.6411 38.1552 22.721 38.1668 22.801 38.1784L22.8012 38.1784L22.8014 38.1784C22.8476 38.1851 22.8939 38.1918 22.9404 38.1981M24.1392 38.3854C24.366 38.4255 24.5928 38.4658 24.8186 38.5107M24.1392 38.3854L22.4698 38.8905L22.4753 38.8911C22.5471 38.8993 22.607 38.9081 22.677 38.9183C22.7245 38.9252 22.7766 38.9328 22.8402 38.9413M23.6929 38.3063C23.4524 38.2678 23.2111 38.2349 22.9699 38.2021L22.9404 38.1981M23.6929 38.3063L23.5743 39.0469C23.572 39.0465 23.5697 39.0461 23.5673 39.0457M23.6929 38.3063L23.5601 39.0444C23.5625 39.0449 23.5649 39.0453 23.5673 39.0457M22.9404 38.1981L22.8402 38.9413M22.9404 38.1981L22.8392 38.9412L22.8402 38.9413M24.8186 38.5107L24.67 39.2458C24.6703 39.2459 24.6706 39.246 24.671 39.246M24.8186 38.5107L24.6723 39.2463C24.6718 39.2462 24.6714 39.2461 24.671 39.246M24.8186 38.5107C24.9534 38.538 25.0883 38.5675 25.2231 38.597L25.2233 38.5971L24.671 39.246M24.671 39.246C24.4545 39.203 24.2356 39.164 24.0087 39.124L24.0086 39.1239C23.9704 39.1172 23.9319 39.1104 23.8933 39.1036C23.7855 39.0846 23.6763 39.0653 23.5673 39.0457M23.5673 39.0457C23.338 39.0091 23.1069 38.9777 22.8657 38.9448L22.8402 38.9413M43.4967 36.2266C40.1508 36.507 36.8686 37.3108 33.7679 38.6097V19.4152L34.6987 19.025L34.7003 19.0244C37.5548 17.8206 40.5782 17.0757 43.6607 16.8161V36.2131L43.4979 36.2265L43.4967 36.2266ZM31.2321 19.4151V38.6092C28.1537 37.3179 24.8944 36.5175 21.5715 36.2371L21.3393 36.2172V16.8161C24.4225 17.0757 27.4465 17.8209 30.3012 19.0249L30.3027 19.0255L31.2321 19.4151Z" stroke="url(#paint0_linear)" stroke-width="1.5"/>
<defs>
<filter id="filter0_d" x="0" y="0" width="64" height="64" filterUnits="userSpaceOnUse" color-interpolation-filters="sRGB">
<feFlood flood-opacity="0" result="BackgroundImageFix"/>
<feColorMatrix in="SourceAlpha" type="matrix" values="0 0 0 0 0 0 0 0 0 0 0 0 0 0 0 0 0 0 127 0"/>
<feOffset dy="4"/>
<feGaussianBlur stdDeviation="4"/>
<feColorMatrix type="matrix" values="0 0 0 0 0.813073 0 0 0 0 0.897212 0 0 0 0 0.970833 0 0 0 1 0"/>
<feBlend mode="normal" in2="BackgroundImageFix" result="effect1_dropShadow"/>
<feBlend mode="normal" in="SourceGraphic" in2="effect1_dropShadow" result="shape"/>
</filter>
<linearGradient id="paint0_linear" x1="39.3271" y1="14.4848" x2="49.2853" y2="39.9962" gradientUnits="userSpaceOnUse">
<stop stop-color="#5E2EC4"/>
<stop offset="1" stop-color="#3263E1"/>
</linearGradient>
</defs>
</svg>
