<svg width="48" height="48" viewBox="0 0 48 48" fill="none" xmlns="http://www.w3.org/2000/svg">
<g filter="url(#filter0_d)">
<circle cx="24" cy="20" r="16" fill="#F8F9FB"/>
</g>
<path d="M24 15.5556C24 14.6126 23.6207 13.7082 22.9456 13.0414C22.2705 12.3746 21.3548 12 20.4 12H15V25.3333H21.3C22.0161 25.3333 22.7028 25.6143 23.2092 26.1144C23.7155 26.6145 24 27.2928 24 28M24 15.5556V28M24 15.5556C24 14.6126 24.3793 13.7082 25.0544 13.0414C25.7295 12.3746 26.6452 12 27.6 12H33V25.3333H26.7C25.9839 25.3333 25.2972 25.6143 24.7908 26.1144C24.2845 26.6145 24 27.2928 24 28" stroke="url(#paint0_linear)" stroke-width="1.5" stroke-linecap="round" stroke-linejoin="round"/>
<defs>
<filter id="filter0_d" x="0" y="0" width="48" height="48" filterUnits="userSpaceOnUse" color-interpolation-filters="sRGB">
<feFlood flood-opacity="0" result="BackgroundImageFix"/>
<feColorMatrix in="SourceAlpha" type="matrix" values="0 0 0 0 0 0 0 0 0 0 0 0 0 0 0 0 0 0 127 0"/>
<feOffset dy="4"/>
<feGaussianBlur stdDeviation="4"/>
<feColorMatrix type="matrix" values="0 0 0 0 0.813073 0 0 0 0 0.897212 0 0 0 0 0.970833 0 0 0 1 0"/>
<feBlend mode="normal" in2="BackgroundImageFix" result="effect1_dropShadow"/>
<feBlend mode="normal" in="SourceGraphic" in2="effect1_dropShadow" result="shape"/>
</filter>
<linearGradient id="paint0_linear" x1="28.2375" y1="10.9899" x2="35.2261" y2="27.6588" gradientUnits="userSpaceOnUse">
<stop stop-color="#5E2EC4"/>
<stop offset="1" stop-color="#3263E1"/>
</linearGradient>
</defs>
</svg>
