<svg width="48" height="48" viewBox="0 0 48 48" fill="none" xmlns="http://www.w3.org/2000/svg">
<path d="M24.292 24.8457C24.8443 24.8457 25.292 24.398 25.292 23.8457C25.292 23.2934 24.8443 22.8457 24.292 22.8457C23.7397 22.8457 23.292 23.2934 23.292 23.8457C23.292 24.398 23.7397 24.8457 24.292 24.8457Z" stroke="#232931" stroke-width="2" stroke-linecap="round" stroke-linejoin="round"/>
<path d="M31.292 24.8457C31.8443 24.8457 32.292 24.398 32.292 23.8457C32.292 23.2934 31.8443 22.8457 31.292 22.8457C30.7397 22.8457 30.292 23.2934 30.292 23.8457C30.292 24.398 30.7397 24.8457 31.292 24.8457Z" stroke="#232931" stroke-width="2" stroke-linecap="round" stroke-linejoin="round"/>
<path d="M17.292 24.8457C17.8443 24.8457 18.292 24.398 18.292 23.8457C18.292 23.2934 17.8443 22.8457 17.292 22.8457C16.7397 22.8457 16.292 23.2934 16.292 23.8457C16.292 24.398 16.7397 24.8457 17.292 24.8457Z" stroke="#232931" stroke-width="2" stroke-linecap="round" stroke-linejoin="round"/>
</svg>
