<svg width="72" height="72" viewBox="0 0 72 72" fill="none" xmlns="http://www.w3.org/2000/svg">
<g filter="url(#filter0_d)">
<circle cx="36" cy="34" r="28" fill="#F2F4F7"/>
</g>
<path d="M44.2077 19.337C44.6315 18.9131 45.1347 18.5769 45.6885 18.3475C46.2424 18.1181 46.8359 18 47.4354 18C48.0348 18 48.6284 18.1181 49.1822 18.3475C49.736 18.5769 50.2392 18.9131 50.663 19.337C51.0869 19.7608 51.4231 20.264 51.6525 20.8178C51.8819 21.3716 52 21.9652 52 22.5646C52 23.1641 51.8819 23.7576 51.6525 24.3115C51.4231 24.8653 51.0869 25.3685 50.663 25.7923L28.8761 47.5792L20 50L22.4208 41.1239L44.2077 19.337Z" stroke="url(#paint0_linear)" stroke-width="2" stroke-linecap="round" stroke-linejoin="round"/>
<defs>
<filter id="filter0_d" x="0" y="0" width="72" height="72" filterUnits="userSpaceOnUse" color-interpolation-filters="sRGB">
<feFlood flood-opacity="0" result="BackgroundImageFix"/>
<feColorMatrix in="SourceAlpha" type="matrix" values="0 0 0 0 0 0 0 0 0 0 0 0 0 0 0 0 0 0 127 0"/>
<feOffset dy="2"/>
<feGaussianBlur stdDeviation="4"/>
<feColorMatrix type="matrix" values="0 0 0 0 0.726042 0 0 0 0 0.794375 0 0 0 0 0.854167 0 0 0 1 0"/>
<feBlend mode="normal" in2="BackgroundImageFix" result="effect1_dropShadow"/>
<feBlend mode="normal" in="SourceGraphic" in2="effect1_dropShadow" result="shape"/>
</filter>
<linearGradient id="paint0_linear" x1="43.5333" y1="15.9798" x2="58.6571" y2="48.0444" gradientUnits="userSpaceOnUse">
<stop stop-color="#5E2EC4"/>
<stop offset="1" stop-color="#3263E1"/>
</linearGradient>
</defs>
</svg>
