<svg width="72" height="72" viewBox="0 0 72 72" fill="none" xmlns="http://www.w3.org/2000/svg">
<g filter="url(#filter0_d)">
<path d="M64 34C64 49.464 51.464 62 36 62C20.536 62 8 49.464 8 34C8 18.536 20.536 6 36 6C51.464 6 64 18.536 64 34Z" fill="#F2F4F7"/>
</g>
<path d="M19 20.6512V30.6512M19 30.6512H28.9007M19 30.6512L26.6565 23.3844C28.9352 21.0868 31.8915 19.5994 35.0799 19.1463C38.2683 18.6932 41.5161 19.299 44.334 20.8724C47.1519 22.4458 49.3872 24.9015 50.7031 27.8696C52.019 30.8377 52.3442 34.1574 51.6298 37.3284C50.9153 40.4994 49.1999 43.35 46.742 45.4507C44.284 47.5514 41.2168 48.7883 38.0023 48.9752C34.7878 49.1621 31.6003 48.2887 28.9199 46.4867C26.2396 44.6847 24.2117 42.0517 23.1418 38.9844" stroke="url(#paint0_linear)" stroke-width="2" stroke-linecap="round" stroke-linejoin="round"/>
<defs>
<filter id="filter0_d" x="0" y="0" width="72" height="72" filterUnits="userSpaceOnUse" color-interpolation-filters="sRGB">
<feFlood flood-opacity="0" result="BackgroundImageFix"/>
<feColorMatrix in="SourceAlpha" type="matrix" values="0 0 0 0 0 0 0 0 0 0 0 0 0 0 0 0 0 0 127 0"/>
<feOffset dy="2"/>
<feGaussianBlur stdDeviation="4"/>
<feColorMatrix type="matrix" values="0 0 0 0 0.726042 0 0 0 0 0.794375 0 0 0 0 0.854167 0 0 0 1 0"/>
<feBlend mode="normal" in2="BackgroundImageFix" result="effect1_dropShadow"/>
<feBlend mode="normal" in="SourceGraphic" in2="effect1_dropShadow" result="shape"/>
</filter>
<linearGradient id="paint0_linear" x1="43.2688" y1="17.1061" x2="56.5787" y2="48.147" gradientUnits="userSpaceOnUse">
<stop stop-color="#5E2EC4"/>
<stop offset="1" stop-color="#3263E1"/>
</linearGradient>
</defs>
</svg>
