<svg width="31" height="48" viewBox="0 0 31 48" fill="none" xmlns="http://www.w3.org/2000/svg">
<path d="M15.5222 40.326L7.14015 31.4293L9.85346 28.8523L15.515 34.8615L21.1429 28.856L23.8631 31.4257L15.5222 40.326ZM31 36.75V11.25C31 5.04675 25.9735 0 19.7952 0H11.2048C5.02648 0 0 5.04675 0 11.25V36.75C0 42.9532 5.02648 48 11.2048 48H19.7952C25.9735 48 31 42.9532 31 36.75ZM19.7952 3.75C23.9142 3.75 27.2651 7.11438 27.2651 11.25V36.75C27.2651 40.8856 23.9142 44.25 19.7952 44.25H11.2048C7.08581 44.25 3.73494 40.8856 3.73494 36.75V11.25C3.73494 7.11438 7.08581 3.75 11.2048 3.75H19.7952ZM15.5 7.59375C14.4685 7.59375 13.6325 8.43311 13.6325 9.46875C13.6325 10.5044 14.4685 11.3438 15.5 11.3438C16.5315 11.3438 17.3675 10.5044 17.3675 9.46875C17.3675 8.43311 16.5315 7.59375 15.5 7.59375ZM15.5 15.0938C14.4685 15.0938 13.6325 15.9331 13.6325 16.9688C13.6325 18.0044 14.4685 18.8438 15.5 18.8438C16.5315 18.8438 17.3675 18.0044 17.3675 16.9688C17.3675 15.9331 16.5315 15.0938 15.5 15.0938ZM15.5 22.5938C14.4685 22.5938 13.6325 23.4331 13.6325 24.4688C13.6325 25.5044 14.4685 26.3438 15.5 26.3438C16.5315 26.3438 17.3675 25.5044 17.3675 24.4688C17.3675 23.4331 16.5315 22.5938 15.5 22.5938Z" fill="url(#paint0_linear)"/>
<defs>
<linearGradient id="paint0_linear" x1="22.7979" y1="-3.0303" x2="50.802" y2="35.3146" gradientUnits="userSpaceOnUse">
<stop stop-color="#5E2EC4"/>
<stop offset="1" stop-color="#3263E1"/>
</linearGradient>
</defs>
</svg>
