<svg width="72" height="72" viewBox="0 0 72 72" fill="none" xmlns="http://www.w3.org/2000/svg">
<g filter="url(#filter0_d)">
<circle cx="36" cy="34" r="28" fill="#F2F4F7"/>
</g>
<path d="M50 50V46.4444C50 44.5585 49.2625 42.7497 47.9497 41.4161C46.637 40.0825 44.8565 39.3333 43 39.3333H29C27.1435 39.3333 25.363 40.0825 24.0503 41.4161C22.7375 42.7497 22 44.5585 22 46.4444V50M43 25.1111C43 29.0385 39.866 32.2222 36 32.2222C32.134 32.2222 29 29.0385 29 25.1111C29 21.1838 32.134 18 36 18C39.866 18 43 21.1838 43 25.1111Z" stroke="url(#paint0_linear)" stroke-width="2" stroke-linecap="round" stroke-linejoin="round"/>
<defs>
<filter id="filter0_d" x="0" y="0" width="72" height="72" filterUnits="userSpaceOnUse" color-interpolation-filters="sRGB">
<feFlood flood-opacity="0" result="BackgroundImageFix"/>
<feColorMatrix in="SourceAlpha" type="matrix" values="0 0 0 0 0 0 0 0 0 0 0 0 0 0 0 0 0 0 127 0"/>
<feOffset dy="2"/>
<feGaussianBlur stdDeviation="4"/>
<feColorMatrix type="matrix" values="0 0 0 0 0.726042 0 0 0 0 0.794375 0 0 0 0 0.854167 0 0 0 1 0"/>
<feBlend mode="normal" in2="BackgroundImageFix" result="effect1_dropShadow"/>
<feBlend mode="normal" in="SourceGraphic" in2="effect1_dropShadow" result="shape"/>
</filter>
<linearGradient id="paint0_linear" x1="42.5917" y1="15.9798" x2="58.9639" y2="46.3524" gradientUnits="userSpaceOnUse">
<stop stop-color="#5E2EC4"/>
<stop offset="1" stop-color="#3263E1"/>
</linearGradient>
</defs>
</svg>
