<svg width="167" height="224" viewBox="0 0 167 224" fill="none" xmlns="http://www.w3.org/2000/svg">
<path d="M31.2763 89.4144L11.0138 68.8853C7.93159 65.7645 7.93159 60.7018 11.0138 57.581C14.096 54.4585 19.0917 54.4585 22.1722 57.581L42.4364 78.1084L31.2763 89.4144Z" fill="#818EFC"/>
<path d="M72.4487 223.624C64.1914 223.624 57.4971 216.844 57.4971 208.477V188.704H87.4003V208.477C87.4003 216.844 80.706 223.624 72.4487 223.624Z" fill="#818EFC"/>
<path d="M137.2 200.584C128.942 200.584 122.248 193.804 122.248 185.439V165.664H152.15V185.439C152.15 193.804 145.457 200.584 137.2 200.584Z" fill="#818EFC"/>
<path d="M23.6521 194.439C15.3948 194.439 8.70215 187.657 8.70215 179.292L8.70215 148.257H38.6037V179.292C38.6037 187.657 31.9094 194.439 23.6521 194.439Z" fill="#818EFC"/>
<path d="M8.68159 84.6253C-11.7117 120.409 5.04933 168.891 46.1177 192.913C87.186 216.935 137.011 207.399 157.406 171.616C177.8 135.833 161.039 87.3503 119.97 63.3283C78.9003 39.3081 29.0749 48.8421 8.68159 84.6253Z" fill="#4151D7"/>
<path d="M71.0558 118.835C75.8351 113.145 81.5971 107.813 88.2378 103.141C89.9583 101.931 91.699 100.8 93.4531 99.7329L89.9147 94.6958C85.8817 88.9536 77.5724 88.5391 71.3577 93.7716C65.1413 99.0024 63.3738 107.898 67.4068 113.64L71.0558 118.835Z" fill="#150B82"/>
<path d="M148.268 89.9475L149.127 82.8938C149.932 76.2784 145.461 71.5896 139.14 72.422C132.822 73.2545 127.046 79.2922 126.241 85.9076L125.97 88.145C133.982 87.2242 141.595 87.8222 148.268 89.9475Z" fill="#150B82"/>
<path d="M144.041 88.8361L144.515 84.944C145.006 80.8939 142.27 78.0228 138.401 78.5325C134.532 79.0421 130.996 82.7389 130.503 86.789L130.382 87.7845C135.163 87.567 139.754 87.9221 144.041 88.8361Z" fill="#818EFC"/>
<path d="M74.9531 114.501C78.8688 110.434 83.311 106.605 88.2362 103.141C88.3854 103.036 88.5347 102.937 88.6856 102.834L86.4419 99.6413C83.9734 96.1247 78.8855 95.8716 75.0806 99.0756C71.2756 102.278 70.1923 107.725 72.6607 111.239L74.9531 114.501Z" fill="#818EFC"/>
<path d="M167 146.486C167 158.023 157.537 172.91 145.866 179.738C134.192 186.565 124.729 182.746 124.729 171.209C124.729 159.671 134.192 144.784 145.866 137.956C157.537 131.13 167 134.947 167 146.486Z" fill="#818EFC"/>
<path d="M137.449 176.267L136.94 176.564C135.057 177.665 133.531 176.496 133.531 173.953V158.17C133.531 155.627 135.057 152.673 136.94 151.572L137.449 151.273C139.332 150.172 140.858 151.341 140.858 153.884V169.668C140.858 172.211 139.332 175.166 137.449 176.267Z" fill="#150B82"/>
<path d="M154.797 166.123L154.289 166.42C152.406 167.523 150.88 166.352 150.88 163.811V148.026C150.88 145.483 152.406 142.529 154.289 141.428L154.797 141.129C156.68 140.028 158.206 141.197 158.206 143.74V159.524C158.206 162.068 156.68 165.022 154.797 166.123Z" fill="#150B82"/>
<path d="M119.902 136.646C119.902 140.115 117.125 142.93 113.699 142.93C110.273 142.93 107.496 140.115 107.496 136.646C107.496 133.175 110.273 130.362 113.699 130.362C117.125 130.362 119.902 133.175 119.902 136.646Z" fill="#150B82"/>
<path d="M160.742 119.535C160.742 123.006 157.965 125.819 154.539 125.819C151.115 125.819 148.338 123.006 148.338 119.535C148.338 116.064 151.115 113.251 154.539 113.251C157.965 113.251 160.742 116.064 160.742 119.535Z" fill="#150B82"/>
<path d="M105.675 92.6673C104.07 92.6673 102.467 92.0319 101.268 90.768C101.142 90.6354 88.4375 77.4896 66.3874 69.3028C63.2163 68.1255 61.588 64.5664 62.7501 61.3538C63.9122 58.1413 67.4254 56.4917 70.5965 57.669C95.4522 66.8972 109.505 81.5669 110.092 82.187C112.428 84.6588 112.344 88.5815 109.904 90.948C108.72 92.0965 107.196 92.6673 105.675 92.6673Z" fill="#150B82"/>
<path d="M115.776 46.8423C115.776 30.1985 105.788 10.8637 93.466 3.65713C88.3195 0.646742 83.5821 0.237316 79.8073 1.98545L79.804 1.97695L69.8563 7.84993C69.8563 7.84993 61.5957 11.2171 61.5957 26.4287C61.5957 43.0708 71.5836 62.4073 83.9058 69.6139C90.0031 73.1798 95.527 73.1033 99.555 70.1031L99.5567 70.1065L108.06 65.1136C112.784 62.3495 115.776 55.9465 115.776 46.8423Z" fill="#D9B63D"/>
<path d="M106.214 52.5273C106.214 69.1711 96.224 76.821 83.9035 69.6145C71.5814 62.4079 61.5918 43.0731 61.5918 26.4293C61.5918 9.78552 71.5814 2.13553 83.9035 9.34212C96.224 16.5487 106.214 35.8835 106.214 52.5273Z" fill="#FDD547"/>
<path d="M99.2248 48.4354C99.2248 59.8603 92.3678 65.1114 83.9093 60.1643C75.4508 55.2173 68.5938 41.944 68.5938 30.5191C68.5938 19.0943 75.4508 13.8431 83.9093 18.7902C92.3678 23.7373 99.2248 37.0105 99.2248 48.4354Z" fill="#D9B63D"/>
<path d="M94.4756 45.6588C94.4756 53.5415 89.745 57.1635 83.9092 53.7505C78.0734 50.3374 73.3428 41.1805 73.3428 33.2978C73.3428 25.4168 78.0734 21.7931 83.9092 25.2061C89.745 28.6191 94.4756 37.776 94.4756 45.6588Z" fill="#FDD547"/>
</svg>
