<svg width="316" height="316" viewBox="0 0 316 316" fill="none" xmlns="http://www.w3.org/2000/svg">
<path d="M158.617 0C71.7801 0 0 70.5445 0 157.383C0 244.221 71.7801 316 158.617 316C245.454 316 316 244.221 316 157.383C316 70.5445 245.454 0 158.617 0Z" fill="#FDD547"/>
<path d="M316 157.383C316 244.221 245.454 316 158.617 316V0C245.454 0 316 70.5445 316 157.383Z" fill="#FDD547"/>
<path d="M158.617 37.0312C92.33 37.0312 37.0312 91.0963 37.0312 157.383C37.0312 223.669 92.33 278.969 158.617 278.969C224.904 278.969 278.969 223.669 278.969 157.383C278.969 91.0963 224.904 37.0312 158.617 37.0312Z" fill="#FEA832"/>
<path d="M278.969 157.383C278.969 223.669 224.904 278.969 158.617 278.969V37.0312C224.904 37.0312 278.969 91.0963 278.969 157.383Z" fill="#FF9100"/>
<path d="M177.133 148.125H167.875V111.094H177.133C182.318 111.094 186.391 115.167 186.391 120.352C186.391 132.571 204.906 132.571 204.906 120.352C204.906 104.983 192.502 92.5781 177.133 92.5781H167.875V83.3203C167.875 77.2095 163.246 74.0625 158.617 74.0625C153.988 74.0625 149.359 77.2095 149.359 83.3203V92.5781H138.867C123.498 92.5781 111.094 104.983 111.094 120.352V138.867C111.094 154.236 123.498 166.641 138.867 166.641H149.359V204.906H138.867C133.682 204.906 129.609 200.833 129.609 195.648C129.609 183.429 111.094 183.429 111.094 195.648C111.094 211.017 123.498 223.422 138.867 223.422H149.359V232.68C149.359 238.79 153.988 241.938 158.617 241.938C163.246 241.938 167.875 238.79 167.875 232.68V223.422H177.133C192.502 223.422 204.906 211.017 204.906 195.648V175.898C204.906 160.53 192.502 148.125 177.133 148.125ZM149.359 148.125H138.867C133.682 148.125 129.609 144.052 129.609 138.867V120.352C129.609 115.167 133.682 111.094 138.867 111.094H149.359V148.125ZM186.391 195.648C186.391 200.833 182.318 204.906 177.133 204.906H167.875V166.641H177.133C182.318 166.641 186.391 170.713 186.391 175.898V195.648Z" fill="#FDD547"/>
<path d="M177.133 148.125H167.875V111.094H177.133C182.318 111.094 186.391 115.167 186.391 120.352C186.391 132.571 204.906 132.571 204.906 120.352C204.906 104.983 192.502 92.5781 177.133 92.5781H167.875V83.3203C167.875 77.2095 163.246 74.0625 158.617 74.0625V241.938C163.246 241.938 167.875 238.79 167.875 232.68V223.422H177.133C192.502 223.422 204.906 211.017 204.906 195.648V175.898C204.906 160.53 192.502 148.125 177.133 148.125ZM186.391 195.648C186.391 200.833 182.318 204.906 177.133 204.906H167.875V166.641H177.133C182.318 166.641 186.391 170.713 186.391 175.898V195.648Z" fill="#FDD547"/>
</svg>
