<svg width="394" height="369" viewBox="0 0 394 369" fill="none" xmlns="http://www.w3.org/2000/svg">
<g opacity="0.2">
<path d="M158.617 0C71.7801 0 0 70.5445 0 157.383C0 244.221 71.7801 316 158.617 316C245.454 316 316 244.221 316 157.383C316 70.5445 245.454 0 158.617 0Z" fill="#FDD547"/>
<path d="M316 157.383C316 244.221 245.454 316 158.617 316V0C245.454 0 316 70.5445 316 157.383Z" fill="#FDD547"/>
<path d="M158.617 37.0312C92.33 37.0312 37.0312 91.0963 37.0312 157.383C37.0312 223.669 92.33 278.969 158.617 278.969C224.904 278.969 278.969 223.669 278.969 157.383C278.969 91.0963 224.904 37.0312 158.617 37.0312Z" fill="#FEA832"/>
<path d="M278.969 157.383C278.969 223.669 224.904 278.969 158.617 278.969V37.0312C224.904 37.0312 278.969 91.0963 278.969 157.383Z" fill="#FF9100"/>
<path d="M177.133 148.125H167.875V111.094H177.133C182.318 111.094 186.391 115.167 186.391 120.352C186.391 132.571 204.906 132.571 204.906 120.352C204.906 104.983 192.502 92.5781 177.133 92.5781H167.875V83.3203C167.875 77.2095 163.246 74.0625 158.617 74.0625C153.988 74.0625 149.359 77.2095 149.359 83.3203V92.5781H138.867C123.498 92.5781 111.094 104.983 111.094 120.352V138.867C111.094 154.236 123.498 166.641 138.867 166.641H149.359V204.906H138.867C133.682 204.906 129.609 200.833 129.609 195.648C129.609 183.429 111.094 183.429 111.094 195.648C111.094 211.017 123.498 223.422 138.867 223.422H149.359V232.68C149.359 238.79 153.988 241.938 158.617 241.938C163.246 241.938 167.875 238.79 167.875 232.68V223.422H177.133C192.502 223.422 204.906 211.017 204.906 195.648V175.898C204.906 160.53 192.502 148.125 177.133 148.125ZM149.359 148.125H138.867C133.682 148.125 129.609 144.052 129.609 138.867V120.352C129.609 115.167 133.682 111.094 138.867 111.094H149.359V148.125ZM186.391 195.648C186.391 200.833 182.318 204.906 177.133 204.906H167.875V166.641H177.133C182.318 166.641 186.391 170.713 186.391 175.898V195.648Z" fill="#FDD547"/>
<path d="M177.133 148.125H167.875V111.094H177.133C182.318 111.094 186.391 115.167 186.391 120.352C186.391 132.571 204.906 132.571 204.906 120.352C204.906 104.983 192.502 92.5781 177.133 92.5781H167.875V83.3203C167.875 77.2095 163.246 74.0625 158.617 74.0625V241.938C163.246 241.938 167.875 238.79 167.875 232.68V223.422H177.133C192.502 223.422 204.906 211.017 204.906 195.648V175.898C204.906 160.53 192.502 148.125 177.133 148.125ZM186.391 195.648C186.391 200.833 182.318 204.906 177.133 204.906H167.875V166.641H177.133C182.318 166.641 186.391 170.713 186.391 175.898V195.648Z" fill="#FDD547"/>
</g>
<path d="M258.276 143.414L238.014 122.885C234.932 119.764 234.932 114.702 238.014 111.581C241.096 108.459 246.092 108.459 249.172 111.581L269.436 132.108L258.276 143.414Z" fill="#818EFC"/>
<path d="M299.449 277.624C291.191 277.624 284.497 270.844 284.497 262.477V242.704H314.4V262.477C314.4 270.844 307.706 277.624 299.449 277.624Z" fill="#818EFC"/>
<path d="M364.2 254.584C355.942 254.584 349.248 247.804 349.248 239.439V219.664H379.15V239.439C379.15 247.804 372.457 254.584 364.2 254.584Z" fill="#818EFC"/>
<path d="M250.652 248.439C242.395 248.439 235.702 241.657 235.702 233.292V202.257H265.604V233.292C265.604 241.657 258.909 248.439 250.652 248.439Z" fill="#818EFC"/>
<path d="M235.682 138.625C215.288 174.409 232.049 222.891 273.118 246.913C314.186 270.935 364.011 261.399 384.406 225.616C404.8 189.833 388.039 141.35 346.97 117.328C305.9 93.3081 256.075 102.842 235.682 138.625Z" fill="#4151D7"/>
<path d="M298.056 172.835C302.835 167.145 308.597 161.813 315.238 157.141C316.958 155.931 318.699 154.8 320.453 153.733L316.915 148.696C312.882 142.954 304.572 142.539 298.358 147.772C292.141 153.002 290.374 161.898 294.407 167.64L298.056 172.835Z" fill="#150B82"/>
<path d="M375.268 143.948L376.127 136.894C376.932 130.278 372.461 125.59 366.14 126.422C359.822 127.254 354.046 133.292 353.241 139.908L352.97 142.145C360.982 141.224 368.595 141.822 375.268 143.948Z" fill="#150B82"/>
<path d="M371.041 142.836L371.515 138.944C372.006 134.894 369.27 132.023 365.401 132.532C361.532 133.042 357.996 136.739 357.503 140.789L357.382 141.785C362.163 141.567 366.754 141.922 371.041 142.836Z" fill="#818EFC"/>
<path d="M301.953 168.501C305.869 164.434 310.311 160.605 315.236 157.141C315.385 157.036 315.535 156.937 315.686 156.834L313.442 153.641C310.973 150.125 305.886 149.872 302.081 153.076C298.276 156.278 297.192 161.725 299.661 165.239L301.953 168.501Z" fill="#818EFC"/>
<path d="M394 200.486C394 212.023 384.537 226.91 372.866 233.738C361.192 240.565 351.729 236.746 351.729 225.209C351.729 213.671 361.192 198.784 372.866 191.956C384.537 185.13 394 188.947 394 200.486Z" fill="#818EFC"/>
<path d="M364.449 230.267L363.94 230.564C362.057 231.665 360.531 230.496 360.531 227.953V212.17C360.531 209.627 362.057 206.673 363.94 205.572L364.449 205.273C366.332 204.172 367.858 205.341 367.858 207.884V223.668C367.858 226.211 366.332 229.166 364.449 230.267Z" fill="#150B82"/>
<path d="M381.797 220.123L381.289 220.42C379.406 221.523 377.88 220.352 377.88 217.811V202.026C377.88 199.483 379.406 196.529 381.289 195.428L381.797 195.129C383.68 194.028 385.206 195.197 385.206 197.74V213.524C385.206 216.068 383.68 219.022 381.797 220.123Z" fill="#150B82"/>
<path d="M346.902 190.646C346.902 194.115 344.125 196.93 340.699 196.93C337.273 196.93 334.496 194.115 334.496 190.646C334.496 187.175 337.273 184.362 340.699 184.362C344.125 184.362 346.902 187.175 346.902 190.646Z" fill="#150B82"/>
<path d="M387.742 173.535C387.742 177.006 384.965 179.819 381.539 179.819C378.115 179.819 375.338 177.006 375.338 173.535C375.338 170.064 378.115 167.251 381.539 167.251C384.965 167.251 387.742 170.064 387.742 173.535Z" fill="#150B82"/>
<path d="M332.675 146.667C331.07 146.667 329.467 146.032 328.268 144.768C328.142 144.635 315.438 131.49 293.387 123.303C290.216 122.125 288.588 118.566 289.75 115.354C290.912 112.141 294.425 110.492 297.597 111.669C322.452 120.897 336.505 135.567 337.092 136.187C339.428 138.659 339.344 142.582 336.904 144.948C335.72 146.096 334.196 146.667 332.675 146.667Z" fill="#150B82"/>
<path d="M342.776 100.842C342.776 84.1985 332.788 64.8637 320.466 57.6571C315.319 54.6467 310.582 54.2373 306.807 55.9854L306.804 55.977L296.856 61.8499C296.856 61.8499 288.596 65.2171 288.596 80.4287C288.596 97.0708 298.584 116.407 310.906 123.614C317.003 127.18 322.527 127.103 326.555 124.103L326.557 124.107L335.06 119.114C339.784 116.35 342.776 109.947 342.776 100.842Z" fill="#D9B63D"/>
<path d="M333.214 106.527C333.214 123.171 323.224 130.821 310.904 123.614C298.581 116.408 288.592 97.0731 288.592 80.4293C288.592 63.7855 298.581 56.1355 310.904 63.3421C323.224 70.5487 333.214 89.8835 333.214 106.527Z" fill="#FDD547"/>
<path d="M326.225 102.435C326.225 113.86 319.368 119.111 310.909 114.164C302.451 109.217 295.594 95.944 295.594 84.5191C295.594 73.0943 302.451 67.8431 310.909 72.7902C319.368 77.7373 326.225 91.0105 326.225 102.435Z" fill="#D9B63D"/>
<path d="M321.476 99.6588C321.476 107.541 316.745 111.163 310.909 107.75C305.073 104.337 300.343 95.1805 300.343 87.2978C300.343 79.4168 305.073 75.7931 310.909 79.2061C316.745 82.6191 321.476 91.776 321.476 99.6588Z" fill="#FDD547"/>
<path d="M179.903 133.416C176.881 132.899 173.678 132.351 170.414 132.158L169.882 132.067C110.601 127.609 53.2311 174.796 42.6812 236.512C30.4283 308.192 95.5794 327.931 145.202 336.413C194.471 344.835 253.196 347.187 271.263 289.683C291.418 222.1 248.201 145.09 179.903 133.416Z" fill="#4151D7"/>
<path d="M271.264 289.683C253.196 347.187 194.471 344.835 145.203 336.413L179.903 133.416C248.202 145.09 291.419 222.1 271.264 289.683Z" fill="#3340AD"/>
<path d="M253.761 72.9391L226.752 123.85L138.892 108.831L130.328 51.8393C129.714 48.9885 130.766 46.0554 132.762 44.0177C134.935 42.0105 137.847 41.0422 140.693 41.5288L168.972 46.3629C174.293 36.6536 185.531 30.8876 197.092 32.8638C208.653 34.84 217.158 43.981 219.13 54.9369L247.41 59.771C250.256 60.2576 252.68 62.1379 254.064 64.7532C255.269 67.338 255.287 70.454 253.761 72.9391Z" fill="#4151D7"/>
<path d="M253.76 72.939L226.752 123.85L182.821 116.34L197.091 32.8638C208.652 34.84 217.157 43.981 219.129 54.9369L247.409 59.771C250.255 60.2575 252.679 62.1379 254.063 64.7532C255.268 67.338 255.286 70.454 253.76 72.939Z" fill="#3340AD"/>
<path d="M184.929 263.574C182.952 275.135 174.02 283.493 163.064 285.465L161.696 293.468C160.845 298.45 156.264 301.693 151.283 300.841C146.301 299.99 143.058 295.409 143.91 290.428L145.248 282.602C135.569 277.103 129.594 266.014 131.57 254.453C132.421 249.474 137.18 246.259 141.984 247.08C146.965 247.931 150.208 252.514 149.356 257.493C148.535 262.296 151.926 267.085 156.729 267.906L156.908 267.937C161.92 268.61 166.321 265.337 167.143 260.533C167.994 255.554 164.899 251.181 159.948 250.151L159.77 250.12C145.186 247.627 135.158 233.464 137.651 218.881C139.658 207.141 148.979 198.666 159.902 196.872L162.152 183.711C163.004 178.73 167.584 175.487 172.566 176.338C177.547 177.19 180.79 181.77 179.938 186.752L177.689 199.913C187.367 205.412 192.986 216.441 191.009 228.002C190.188 232.805 185.578 236.226 180.596 235.374C175.793 234.553 172.402 229.764 173.223 224.961C174.074 219.982 170.98 215.608 166.029 214.578L165.85 214.548C161.047 213.727 156.288 216.942 155.437 221.921C154.616 226.724 158.007 231.513 162.81 232.334L162.988 232.365C177.722 235.067 187.452 248.812 184.929 263.574Z" fill="#FDD547"/>
<path d="M244.04 133.028C242.367 142.811 232.995 149.446 223.213 147.774L134.283 132.572C124.5 130.9 117.865 121.528 119.537 111.746C121.209 101.963 130.581 95.3279 140.363 97.0001L229.294 112.202C239.076 113.874 245.712 123.246 244.04 133.028Z" fill="#FDD547"/>
<path d="M184.929 263.574C182.952 275.135 174.02 283.493 163.064 285.465L161.696 293.468C160.845 298.45 156.264 301.693 151.283 300.841L156.908 267.937C161.92 268.61 166.321 265.337 167.142 260.534C167.994 255.554 164.899 251.181 159.948 250.151L162.988 232.365C177.722 235.067 187.452 248.812 184.929 263.574Z" fill="#FDBF00"/>
<path d="M191.009 228.002C190.188 232.805 185.578 236.226 180.596 235.375C175.793 234.553 172.402 229.764 173.223 224.961C174.074 219.982 170.98 215.608 166.029 214.579L172.565 176.338C177.547 177.19 180.79 181.77 179.938 186.752L177.689 199.913C187.367 205.412 192.986 216.441 191.009 228.002Z" fill="#FDBF00"/>
<path d="M244.039 133.028C242.367 142.811 232.995 149.446 223.213 147.774L178.747 140.173L184.828 104.601L229.293 112.202C239.076 113.874 245.711 123.246 244.039 133.028Z" fill="#FDBF00"/>
<path d="M345.551 232.47C345.551 242.394 337.431 250.514 327.507 250.514L281.795 268.558L236.685 250.514C226.76 250.514 218.641 242.394 218.641 232.47C218.641 222.546 226.76 214.426 236.685 214.426L327.507 214.426C337.431 214.426 345.551 222.546 345.551 232.47Z" fill="#FDD547"/>
<path d="M345.551 232.423C345.551 242.347 337.431 250.467 327.507 250.467L281.795 268.511L281.795 214.379L327.507 214.379C337.431 214.379 345.551 222.499 345.551 232.423Z" fill="#FDBF00"/>
<path d="M345.604 268.558C345.604 278.482 337.485 286.602 327.56 286.602L281.849 304.646L236.738 286.602C226.814 286.602 218.694 278.482 218.694 268.558C218.694 258.634 226.814 250.514 236.738 250.514L327.56 250.514C337.485 250.514 345.604 258.634 345.604 268.558Z" fill="#FDBF00"/>
<path d="M345.604 268.511C345.604 278.436 337.485 286.555 327.56 286.555L281.849 304.599L281.849 250.467L327.56 250.467C337.485 250.467 345.604 258.587 345.604 268.511Z" fill="#FF9100"/>
<path d="M345.658 304.646C345.658 314.571 337.538 322.69 327.614 322.69L281.902 340.734L236.792 322.69C226.868 322.69 218.748 314.571 218.748 304.646C218.748 294.722 226.868 286.602 236.792 286.602L327.614 286.602C337.538 286.602 345.658 294.722 345.658 304.646Z" fill="#FDD547"/>
<path d="M345.658 304.6C345.658 314.524 337.538 322.644 327.614 322.644L281.902 340.688L281.902 286.555L327.614 286.555C337.538 286.555 345.658 294.675 345.658 304.6Z" fill="#FDBF00"/>
<path d="M345.698 340.735C345.698 350.659 337.578 358.779 327.654 358.779L236.832 358.779C226.908 358.779 218.788 350.659 218.788 340.735C218.788 330.81 226.908 322.69 236.832 322.69L327.654 322.69C337.578 322.69 345.698 330.81 345.698 340.735Z" fill="#FDBF00"/>
<path d="M345.698 340.688C345.698 350.612 337.578 358.732 327.654 358.732L281.942 358.732L281.942 322.644L327.654 322.644C337.578 322.644 345.698 330.763 345.698 340.688Z" fill="#FF9100"/>
</svg>
