<svg width="334" height="334" viewBox="0 0 334 334" fill="none" xmlns="http://www.w3.org/2000/svg">
<path d="M253.379 80.6204V145.75L287.931 111.199V287.931H111.199L253.379 145.75V80.6204L0 334H80.6207H115.172H149.724H184.276H218.828H253.379H287.931H334V287.931V253.379V218.827V184.276V149.724V115.172V80.6204V-0.000244141L253.379 80.6204Z" fill="#FDD547"/>
<path d="M316.725 17.2756V80.6204V115.172V149.724V184.276V218.827V253.379V287.931V334H334V287.931V253.379V218.827V184.276V149.724V115.172V80.6204V-0.000244141L316.725 17.2756Z" fill="#FDBF00"/>
<path d="M310.965 282.172H334V293.689H310.965V282.172Z" fill="#D0AC2D"/>
<path d="M310.965 247.62H334V259.138H310.965V247.62Z" fill="#D0AC2D"/>
<path d="M310.965 213.069H334V224.586H310.965V213.069Z" fill="#D0AC2D"/>
<path d="M310.965 178.517H334V190.034H310.965V178.517Z" fill="#D0AC2D"/>
<path d="M310.965 143.965H334V155.483H310.965V143.965Z" fill="#D0AC2D"/>
<path d="M310.965 109.414H334V120.931H310.965V109.414Z" fill="#D0AC2D"/>
<path d="M310.965 74.8618H334V86.3791H310.965V74.8618Z" fill="#D0AC2D"/>
<path d="M74.8618 310.965H86.3791V334H74.8618V310.965Z" fill="#D0AC2D"/>
<path d="M109.414 310.965H120.931V334H109.414V310.965Z" fill="#D0AC2D"/>
<path d="M143.965 310.965H155.483V334H143.965V310.965Z" fill="#D0AC2D"/>
<path d="M178.518 310.965H190.035V334H178.518V310.965Z" fill="#D0AC2D"/>
<path d="M213.069 310.965H224.586V334H213.069V310.965Z" fill="#D0AC2D"/>
<path d="M247.621 310.965H259.138V334H247.621V310.965Z" fill="#D0AC2D"/>
<path d="M282.173 310.965H293.69V334H282.173V310.965Z" fill="#D0AC2D"/>
<path d="M242.905 273.458L251.493 300.94L268.326 277.581C264.699 274.968 260.514 273.235 256.102 272.52C251.69 271.804 247.172 272.125 242.905 273.458Z" fill="#484F57"/>
<path d="M261.634 238.413L281.606 259.153L293.305 187.019L303.732 122.729L307.42 99.9916L284.682 96.304L261.634 238.413Z" fill="#3340AD"/>
<path d="M236.131 251.778L261.634 238.413L284.682 96.3039L261.945 92.6162L250.882 160.828L241.377 219.434L236.131 251.778Z" fill="#4151D7"/>
<path d="M256.102 272.518C260.518 273.222 264.706 274.957 268.326 277.581L281.605 259.153L261.634 238.412L236.131 251.778L242.905 273.458C247.169 272.112 251.691 271.79 256.102 272.518Z" fill="#E1E5EC"/>
<path d="M307.419 99.9915L311.107 77.2541L265.632 69.8788L261.945 92.6162L284.682 96.3038L307.419 99.9915Z" fill="#FF9100"/>
<path d="M312.951 65.8854C313.929 59.8551 312.472 53.6832 308.899 48.7276C305.327 43.7719 299.932 40.4384 293.901 39.4604C287.871 38.4823 281.699 39.9399 276.744 43.5124C271.788 47.0849 268.454 52.4798 267.476 58.5101L265.633 69.8788L311.107 77.2541L312.951 65.8854Z" fill="#F0F3F7"/>
<path d="M296.05 98.1477L292.363 120.885L281.936 185.175L271.619 248.783L281.605 259.153L293.304 187.019L303.731 122.729L307.419 99.9915L296.05 98.1477Z" fill="#3340AD"/>
<path d="M299.738 75.4103L311.107 77.2541L307.419 99.9915L296.051 98.1477L299.738 75.4103Z" fill="#FF9100"/>
<path d="M293.901 39.4604C291.976 39.1733 290.022 39.1328 288.087 39.3399C292.756 41.3789 296.616 44.9117 299.058 49.3831C301.501 53.8544 302.389 59.0108 301.582 64.0416L299.738 75.4103L311.107 77.2541L312.951 65.8854C313.929 59.8551 312.471 53.6832 308.899 48.7276C305.326 43.7719 299.931 40.4384 293.901 39.4604Z" fill="#E1E5EC"/>
<path d="M180.789 33.7314L32.7662 56.2412C26.4777 57.1975 22.1551 63.0706 23.1114 69.3591L59.4735 308.472C60.4298 314.761 66.3029 319.083 72.5914 318.127L220.614 295.617C226.902 294.661 231.225 288.788 230.269 282.499L193.906 43.3862C192.95 37.0977 187.077 32.7751 180.789 33.7314Z" fill="#4151D7"/>
<path d="M180.788 33.7314L175.095 34.5972C178.114 34.1474 181.187 34.9103 183.645 36.7192C186.103 38.5282 187.745 41.2363 188.213 44.252L224.575 283.365C225.025 286.383 224.262 289.457 222.453 291.915C220.644 294.373 217.936 296.015 214.92 296.483L220.614 295.617C223.629 295.149 226.337 293.507 228.146 291.049C229.955 288.592 230.718 285.518 230.268 282.499L193.906 43.3862C193.438 40.3705 191.796 37.6625 189.338 35.8535C186.881 34.0445 183.807 33.2816 180.788 33.7314Z" fill="#4151D7"/>
<path d="M187.217 114.302L177.693 51.6767L41.0571 72.4551L50.5805 135.08L118.899 124.691L187.217 114.302Z" fill="#E1E5EC"/>
<path d="M118.898 124.691L187.216 114.301L195.874 171.233L127.556 181.622L118.898 124.691Z" fill="#3340AD"/>
<path d="M50.5801 135.08L118.898 124.691L127.556 181.622L59.2377 192.012L50.5801 135.08Z" fill="#4181B9" fill-opacity="0.5"/>
<path d="M59.2378 192.012L127.556 181.622L136.213 238.554L67.8954 248.943L59.2378 192.012Z" fill="#3340AD"/>
<path d="M136.214 238.554L67.8955 248.943L75.6874 300.182L212.323 279.403L204.532 228.165L136.214 238.554Z" fill="#3340AD"/>
<path d="M127.556 181.622L195.874 171.233L204.532 228.165L136.214 238.554L127.556 181.622Z" fill="#4181B9" fill-opacity="0.5"/>
<path d="M85.972 176.296L97.3584 174.565L95.6268 163.179L107.013 161.447L105.282 150.061L93.8953 151.792L92.1638 140.406L80.7774 142.137L82.509 153.524L71.1226 155.255L72.8542 166.642L84.2405 164.91L85.972 176.296Z" fill="#F0F3F7"/>
<path d="M103.327 197.958L96.5012 207.233L87.2269 200.407L80.4009 209.681L89.6753 216.507L82.8493 225.781L92.1237 232.607L98.9496 223.333L108.224 230.159L115.05 220.885L105.776 214.059L112.602 204.784L103.327 197.958Z" fill="#F0F3F7"/>
<path d="M139.441 144.866L173.6 139.672L175.331 151.058L141.172 156.252L139.441 144.866Z" fill="#F0F3F7"/>
<path d="M148.099 201.798L149.83 213.184L183.989 207.989L182.258 196.603L165.178 199.2L148.099 201.798Z" fill="#F0F3F7"/>
<path d="M120.866 252.538L155.025 247.343L156.756 258.729L122.597 263.924L120.866 252.538Z" fill="#F0F3F7"/>
<path d="M123.463 269.617L157.622 264.423L159.353 275.809L125.194 281.004L123.463 269.617Z" fill="#F0F3F7"/>
<path d="M167.272 198.416C167.615 198.235 167.933 198.011 168.219 197.748L168.969 196.935L169.522 195.977C169.687 195.626 169.807 195.255 169.879 194.874C169.995 194.527 170.056 194.164 170.059 193.798C170.072 193.412 170.054 193.025 170.005 192.642C169.84 191.51 169.341 190.453 168.573 189.606C167.804 188.758 166.801 188.159 165.691 187.884C164.58 187.609 163.413 187.672 162.338 188.063C161.263 188.454 160.329 189.156 159.655 190.08C159.223 190.702 158.914 191.402 158.745 192.14C158.558 192.869 158.515 193.628 158.619 194.373C158.687 194.753 158.783 195.128 158.906 195.494C159.022 195.842 159.19 196.17 159.403 196.467C159.583 196.811 159.808 197.13 160.072 197.414C160.327 197.68 160.599 197.931 160.885 198.164L161.837 198.718C162.189 198.884 162.562 199.004 162.945 199.074C163.293 199.189 163.656 199.252 164.022 199.26C164.408 199.266 164.794 199.246 165.178 199.201C165.558 199.132 165.933 199.037 166.299 198.914C166.646 198.796 166.974 198.629 167.272 198.416Z" fill="#F0F3F7"/>
<path d="M171.203 211.623C170.894 211.421 170.574 211.236 170.245 211.07C169.894 210.904 169.524 210.784 169.142 210.713C168.794 210.599 168.431 210.536 168.065 210.528C167.29 210.471 166.512 210.589 165.788 210.874C165.441 210.99 165.113 211.158 164.815 211.371C164.47 211.552 164.15 211.777 163.863 212.04C163.6 212.297 163.351 212.568 163.118 212.853C162.673 213.467 162.363 214.17 162.208 214.913C162.012 215.641 161.969 216.401 162.082 217.146C162.196 217.891 162.463 218.604 162.866 219.24C163.26 219.886 163.761 220.46 164.348 220.937C165.588 221.831 167.129 222.203 168.641 221.974C170.153 221.744 171.514 220.93 172.432 219.708C173.305 218.458 173.675 216.925 173.468 215.414C173.346 214.672 173.08 213.96 172.684 213.32C172.316 212.656 171.811 212.078 171.203 211.623Z" fill="#F0F3F7"/>
</svg>
