<svg width="40" height="40" viewBox="0 0 40 40" fill="none" xmlns="http://www.w3.org/2000/svg">
<rect x="1" y="1" width="38" height="38" rx="19" fill="#232931" stroke="#232931" stroke-width="2"/>
<path d="M24.4264 22.7727C26.5627 21.5996 28.1823 20.7059 28.3219 20.6365C28.7683 20.3989 29.2295 19.7704 28.3219 19.2822C28.0288 19.1287 26.4509 18.2626 24.4264 17.146L21.6201 19.9801L24.4263 22.7727H24.4264Z" fill="#FFD900"/>
<path d="M21.6206 19.98L12.6846 28.9861C12.8942 29.014 13.131 28.9583 13.4103 28.8048C13.9965 28.4841 20.2099 25.0907 24.427 22.7731L21.6206 19.98Z" fill="#F43249"/>
<path d="M21.6206 19.9799L24.4268 17.1595C24.4268 17.1595 14.0389 11.4905 13.4102 11.156C13.1737 11.0154 12.9083 10.9738 12.6709 11.0154L21.6206 19.9798V19.9799Z" fill="#00EE76"/>
<path d="M21.6201 19.98L12.6702 11.0156C12.307 11.0996 12 11.4205 12 12.0765V27.9249C12 28.5257 12.2376 28.9584 12.684 29L21.62 19.9799L21.6201 19.98Z" fill="#00D3FF"/>
</svg>
