<svg width="32" height="32" viewBox="0 0 32 32" fill="none" xmlns="http://www.w3.org/2000/svg">
<path d="M16.0006 6.40916C12.0685 6.40916 8.33452 6.05964 6.90829 9.71708C6.31917 11.2277 6.40472 13.1895 6.40472 15.9986C6.40472 18.4635 6.32567 20.7803 6.90829 22.2789C8.33127 25.9385 12.0956 25.5879 15.9985 25.5879C19.7638 25.5879 23.6462 25.9797 25.0897 22.2789C25.6799 20.7532 25.5933 18.8206 25.5933 15.9986C25.5933 12.2524 25.8001 9.83394 23.9819 8.01821C22.1409 6.17867 19.6512 6.40916 15.9963 6.40916H16.0006ZM15.1408 8.13724C23.3429 8.12425 24.3869 7.21314 23.8108 19.8702C23.6061 24.3468 20.1948 23.8555 16.0017 23.8555C8.35618 23.8555 8.13634 23.637 8.13634 15.9942C8.13634 8.26276 8.74279 8.14157 15.1408 8.13507V8.13724ZM21.1229 9.72898C20.4872 9.72898 19.9718 10.244 19.9718 10.8792C19.9718 11.5144 20.4872 12.0295 21.1229 12.0295C21.7586 12.0295 22.2741 11.5144 22.2741 10.8792C22.2741 10.244 21.7586 9.72898 21.1229 9.72898ZM16.0006 11.074C13.2792 11.074 11.0733 13.2793 11.0733 15.9986C11.0733 18.7178 13.2792 20.922 16.0006 20.922C18.722 20.922 20.9269 18.7178 20.9269 15.9986C20.9269 13.2793 18.722 11.074 16.0006 11.074ZM16.0006 12.8021C20.2295 12.8021 20.2349 19.195 16.0006 19.195C11.7728 19.195 11.7663 12.8021 16.0006 12.8021Z" fill="#4151D7"/>
</svg>
