<svg width="101" height="23" viewBox="0 0 101 23" fill="none" xmlns="http://www.w3.org/2000/svg">
<path d="M16.5306 15.0423C19.2602 13.5434 21.3297 12.4014 21.5081 12.3128C22.0785 12.0092 22.6678 11.2061 21.5081 10.5824C21.1336 10.3862 19.1174 9.2796 16.5306 7.85278L12.9448 11.4741L16.5304 15.0423H16.5306Z" fill="#FFD900"/>
<path d="M12.9449 11.4741L1.52686 22.9818C1.79468 23.0174 2.09727 22.9463 2.45417 22.7501C3.20313 22.3403 11.1424 18.0044 16.5309 15.0431L12.9449 11.4741Z" fill="#F43249"/>
<path d="M12.9449 11.4742L16.5305 7.87043C16.5305 7.87043 3.25724 0.626758 2.45398 0.199338C2.15177 0.0196188 1.81265 -0.0335156 1.50928 0.0196188L12.9449 11.474V11.4742Z" fill="#00EE76"/>
<path d="M12.9446 11.4742L1.50875 0.0197754C1.0446 0.127021 0.652344 0.537055 0.652344 1.37529V21.6258C0.652344 22.3935 0.955913 22.9463 1.52633 22.9994L12.9444 11.474L12.9446 11.4742Z" fill="#00D3FF"/>
<path d="M50.1798 9.19005C48.1283 9.19005 46.4332 10.7776 46.4332 12.9544C46.4332 15.1134 48.1105 16.7187 50.18 16.7187C52.2493 16.7187 53.9264 15.1311 53.9264 12.9544C53.9264 10.7776 52.2493 9.19005 50.1798 9.19005ZM50.1798 15.2208C49.0556 15.2208 48.0749 14.2749 48.0749 12.9376C48.0749 11.5817 49.0564 10.6544 50.1798 10.6544C51.3032 10.6544 52.2847 11.5817 52.2847 12.9376C52.2847 14.2749 51.3032 15.2208 50.1798 15.2208ZM42.0266 9.19005C39.9571 9.19005 38.2798 10.7776 38.2798 12.9544C38.2798 15.1134 39.9571 16.7187 42.0266 16.7187C44.0959 16.7187 45.7732 15.1311 45.7732 12.9544C45.7732 10.7776 44.0959 9.19005 42.0264 9.19005H42.0266ZM42.0266 15.2208C40.9022 15.2208 39.9217 14.2749 39.9217 12.9376C39.9217 11.5817 40.9032 10.6544 42.0266 10.6544C43.1508 10.6544 44.1315 11.5817 44.1315 12.9376C44.1315 14.2749 43.1676 15.2208 42.0266 15.2208ZM32.3389 10.3498V11.9374H36.1209C36.0134 12.8294 35.711 13.4894 35.2646 13.9358C34.7118 14.4886 33.8554 15.0956 32.3389 15.0956C30.0014 15.0956 28.2001 13.2046 28.2001 10.8673C28.2001 8.52997 30.0024 6.60326 32.3389 6.60326C33.6052 6.60326 34.5157 7.10296 35.1935 7.74546L36.317 6.62104C35.3711 5.7115 34.1049 5.01587 32.3389 5.01587C29.145 5.01587 26.4688 7.63802 26.4688 10.8317C26.4688 14.0257 29.145 16.6478 32.3389 16.6478C34.0693 16.6478 35.3543 16.0772 36.3889 15.0061C37.4414 13.9536 37.7626 12.4725 37.7626 11.2773C37.7626 10.9029 37.7272 10.5637 37.6731 10.2781L32.3389 10.3498ZM71.9813 11.5807C71.6778 10.7421 70.7149 9.19005 68.7874 9.19005C66.8601 9.19005 65.2725 10.7067 65.2725 12.9544C65.2725 15.0593 66.8601 16.7187 68.966 16.7187C70.6786 16.7187 71.66 15.6662 72.07 15.0593L70.8038 14.203C70.3752 14.8278 69.8046 15.2376 68.966 15.2376C68.1273 15.2376 67.5389 14.8631 67.1637 14.0956L72.1411 12.0085L71.9813 11.5807ZM66.9142 12.8479C66.8789 11.4024 68.0386 10.6534 68.8585 10.6534C69.5188 10.6534 70.054 10.9745 70.25 11.4565L66.9142 12.8479ZM62.8643 16.4693H64.506V5.44348H62.8643V16.4693ZM60.1888 10.0287H60.1355C59.761 9.58231 59.0654 9.19005 58.1726 9.19005C56.2993 9.19005 54.6044 10.8495 54.6044 12.9544C54.6044 15.0593 56.317 16.7011 58.1726 16.7011C59.0644 16.7011 59.7602 16.3087 60.1355 15.8446H60.1888V16.3798C60.1888 17.8254 59.4211 18.5919 58.1904 18.5919C57.1912 18.5919 56.5665 17.8607 56.317 17.2538L54.8902 17.8607C55.3 18.8599 56.3889 20.0908 58.1904 20.0908C60.1169 20.0908 61.7408 18.9488 61.7408 16.1837V9.42173H60.1888V10.0287ZM58.3154 15.2208C57.1912 15.2208 56.2461 14.2749 56.2461 12.9554C56.2461 11.6358 57.192 10.672 58.3154 10.672C59.4221 10.672 60.3138 11.6358 60.3138 12.9554C60.313 14.2572 59.4211 15.2208 58.3154 15.2208ZM79.635 5.44368H75.7101V16.4693H77.3518V12.2941H79.635C81.4551 12.2941 83.2388 10.9736 83.2388 8.8689C83.2388 6.76403 81.4551 5.44348 79.635 5.44348V5.44368ZM79.6882 10.7608H77.3686V6.97774H79.6882C80.9013 6.97774 81.6149 7.99472 81.6149 8.8687C81.5979 9.7251 80.9023 10.7608 79.6882 10.7608ZM89.7868 9.17227C88.6093 9.17227 87.3782 9.68975 86.8787 10.8673L88.3243 11.4742C88.6456 10.8673 89.2162 10.6712 89.8232 10.6712C90.6796 10.6712 91.5358 11.1885 91.5536 12.098V12.2054C91.25 12.0271 90.6263 11.7768 89.841 11.7768C88.2712 11.7768 86.6826 12.651 86.6826 14.2572C86.6826 15.7381 87.9676 16.6834 89.3946 16.6834C90.501 16.6834 91.1072 16.1837 91.4817 15.5953H91.535V16.4517H93.1224V12.223C93.1048 10.2787 91.66 9.17208 89.7868 9.17208V9.17227ZM89.5907 15.203C89.0555 15.203 88.3057 14.935 88.3057 14.2757C88.3057 13.4193 89.233 13.0982 90.0361 13.0982C90.7495 13.0982 91.0886 13.2587 91.535 13.4726C91.41 14.4896 90.5358 15.203 89.5907 15.203ZM98.8498 9.42271L96.9764 14.1861H96.9231L94.979 9.42251H93.213L96.1386 16.0948L94.4791 19.8238H96.1917L100.669 9.42251H98.8496L98.8498 9.42271ZM84.1491 16.4693H85.7908V5.44348H84.1491V16.4693Z" fill="#F0F3F7"/>
</svg>
