<svg width="101" height="23" viewBox="0 0 101 23" fill="none" xmlns="http://www.w3.org/2000/svg">
<path d="M16.5301 15.0424C19.2597 13.5435 21.3292 12.4015 21.5076 12.3128C22.078 12.0092 22.6674 11.2062 21.5076 10.5824C21.1331 10.3863 19.1169 9.27966 16.5301 7.85284L12.9443 11.4742L16.5299 15.0424H16.5301Z" fill="#FFD900"/>
<path d="M12.9444 11.4741L1.52637 22.9818C1.79419 23.0173 2.09678 22.9462 2.45368 22.7501C3.20264 22.3402 11.1419 18.0043 16.5304 15.0431L12.9444 11.4741Z" fill="#F43249"/>
<path d="M12.9444 11.4742L16.53 7.87043C16.53 7.87043 3.25676 0.626758 2.45349 0.199338C2.15129 0.0196188 1.81216 -0.0335156 1.50879 0.0196188L12.9444 11.474V11.4742Z" fill="#00EE76"/>
<path d="M12.9446 11.4742L1.50875 0.0197754C1.0446 0.127021 0.652344 0.537055 0.652344 1.37529V21.6258C0.652344 22.3935 0.955913 22.9463 1.52633 22.9994L12.9444 11.474L12.9446 11.4742Z" fill="#00D3FF"/>
<path d="M50.1798 9.19011C48.1283 9.19011 46.4332 10.7777 46.4332 12.9545C46.4332 15.1134 48.1105 16.7188 50.18 16.7188C52.2493 16.7188 53.9264 15.1312 53.9264 12.9545C53.9264 10.7777 52.2493 9.19011 50.1798 9.19011ZM50.1798 15.2209C49.0556 15.2209 48.0749 14.275 48.0749 12.9377C48.0749 11.5817 49.0564 10.6544 50.1798 10.6544C51.3032 10.6544 52.2847 11.5817 52.2847 12.9377C52.2847 14.275 51.3032 15.2209 50.1798 15.2209ZM42.0266 9.19011C39.9571 9.19011 38.2798 10.7777 38.2798 12.9545C38.2798 15.1134 39.9571 16.7188 42.0266 16.7188C44.0959 16.7188 45.7732 15.1312 45.7732 12.9545C45.7732 10.7777 44.0959 9.19011 42.0264 9.19011H42.0266ZM42.0266 15.2209C40.9022 15.2209 39.9217 14.275 39.9217 12.9377C39.9217 11.5817 40.9032 10.6544 42.0266 10.6544C43.1508 10.6544 44.1315 11.5817 44.1315 12.9377C44.1315 14.275 43.1676 15.2209 42.0266 15.2209ZM32.3389 10.3499V11.9375H36.1209C36.0134 12.8294 35.711 13.4895 35.2646 13.9359C34.7118 14.4887 33.8554 15.0957 32.3389 15.0957C30.0014 15.0957 28.2001 13.2047 28.2001 10.8674C28.2001 8.53003 30.0024 6.60332 32.3389 6.60332C33.6052 6.60332 34.5157 7.10302 35.1935 7.74552L36.317 6.6211C35.3711 5.71156 34.1049 5.01593 32.3389 5.01593C29.145 5.01593 26.4688 7.63808 26.4688 10.8318C26.4688 14.0257 29.145 16.6479 32.3389 16.6479C34.0693 16.6479 35.3543 16.0773 36.3889 15.0062C37.4414 13.9537 37.7626 12.4725 37.7626 11.2774C37.7626 10.9029 37.7272 10.5638 37.6731 10.2782L32.3389 10.3499ZM71.9813 11.5808C71.6778 10.7421 70.7149 9.19011 68.7874 9.19011C66.8601 9.19011 65.2725 10.7068 65.2725 12.9545C65.2725 15.0593 66.8601 16.7188 68.966 16.7188C70.6786 16.7188 71.66 15.6663 72.07 15.0593L70.8038 14.2031C70.3752 14.8278 69.8046 15.2377 68.966 15.2377C68.1273 15.2377 67.5389 14.8632 67.1637 14.0957L72.1411 12.0086L71.9813 11.5808ZM66.9142 12.848C66.8789 11.4024 68.0386 10.6535 68.8585 10.6535C69.5188 10.6535 70.054 10.9746 70.25 11.4565L66.9142 12.848ZM62.8643 16.4693H64.506V5.44355H62.8643V16.4693ZM60.1888 10.0287H60.1355C59.761 9.58237 59.0654 9.19011 58.1726 9.19011C56.2993 9.19011 54.6044 10.8496 54.6044 12.9545C54.6044 15.0593 56.317 16.7012 58.1726 16.7012C59.0644 16.7012 59.7602 16.3088 60.1355 15.8446H60.1888V16.3799C60.1888 17.8254 59.4211 18.592 58.1904 18.592C57.1912 18.592 56.5665 17.8608 56.317 17.2538L54.8902 17.8608C55.3 18.86 56.3889 20.0909 58.1904 20.0909C60.1169 20.0909 61.7408 18.9489 61.7408 16.1837V9.42179H60.1888V10.0287ZM58.3154 15.2209C57.1912 15.2209 56.2461 14.275 56.2461 12.9554C56.2461 11.6359 57.192 10.672 58.3154 10.672C59.4221 10.672 60.3138 11.6359 60.3138 12.9554C60.313 14.2572 59.4211 15.2209 58.3154 15.2209ZM79.635 5.44374H75.7101V16.4693H77.3518V12.2942H79.635C81.4551 12.2942 83.2388 10.9736 83.2388 8.86896C83.2388 6.76409 81.4551 5.44355 79.635 5.44355V5.44374ZM79.6882 10.7609H77.3686V6.9778H79.6882C80.9013 6.9778 81.6149 7.99478 81.6149 8.86876C81.5979 9.72517 80.9023 10.7609 79.6882 10.7609ZM89.7868 9.17233C88.6093 9.17233 87.3782 9.68981 86.8787 10.8674L88.3243 11.4743C88.6456 10.8674 89.2162 10.6712 89.8232 10.6712C90.6796 10.6712 91.5358 11.1885 91.5536 12.098V12.2055C91.25 12.0271 90.6263 11.7769 89.841 11.7769C88.2712 11.7769 86.6826 12.6511 86.6826 14.2572C86.6826 15.7381 87.9676 16.6834 89.3946 16.6834C90.501 16.6834 91.1072 16.1837 91.4817 15.5954H91.535V16.4518H93.1224V12.2231C93.1048 10.2788 91.66 9.17214 89.7868 9.17214V9.17233ZM89.5907 15.2031C89.0555 15.2031 88.3057 14.9351 88.3057 14.2758C88.3057 13.4194 89.233 13.0982 90.0361 13.0982C90.7495 13.0982 91.0886 13.2588 91.535 13.4727C91.41 14.4897 90.5358 15.2031 89.5907 15.2031ZM98.8498 9.42277L96.9764 14.1861H96.9231L94.979 9.42257H93.213L96.1386 16.0949L94.4791 19.8238H96.1917L100.669 9.42257H98.8496L98.8498 9.42277ZM84.1491 16.4693H85.7908V5.44355H84.1491V16.4693Z" fill="#232931"/>
</svg>
