<svg width="124" height="21" viewBox="0 0 124 21" fill="none" xmlns="http://www.w3.org/2000/svg">
<path d="M34.7583 16L35.7185 13.1307H40.0935L41.0594 16H43.3094L39.2071 4.36364H36.6048L32.5083 16H34.7583ZM36.2867 11.4375L37.8605 6.75H37.9514L39.5253 11.4375H36.2867ZM44.7512 19.2727H46.808V14.625H46.8932C47.2171 15.2614 47.8932 16.1534 49.3932 16.1534C51.45 16.1534 52.9898 14.5227 52.9898 11.6477C52.9898 8.73864 51.4046 7.15909 49.3875 7.15909C47.8477 7.15909 47.2057 8.08523 46.8932 8.71591H46.7739V7.27273H44.7512V19.2727ZM46.7682 11.6364C46.7682 9.94318 47.4955 8.84659 48.8193 8.84659C50.1887 8.84659 50.8932 10.0114 50.8932 11.6364C50.8932 13.2727 50.1773 14.4659 48.8193 14.4659C47.5068 14.4659 46.7682 13.3295 46.7682 11.6364ZM54.7512 19.2727H56.808V14.625H56.8932C57.2171 15.2614 57.8932 16.1534 59.3932 16.1534C61.45 16.1534 62.9898 14.5227 62.9898 11.6477C62.9898 8.73864 61.4046 7.15909 59.3875 7.15909C57.8477 7.15909 57.2057 8.08523 56.8932 8.71591H56.7739V7.27273H54.7512V19.2727ZM56.7682 11.6364C56.7682 9.94318 57.4955 8.84659 58.8193 8.84659C60.1887 8.84659 60.8932 10.0114 60.8932 11.6364C60.8932 13.2727 60.1773 14.4659 58.8193 14.4659C57.5068 14.4659 56.7682 13.3295 56.7682 11.6364ZM66.808 4.36364H64.7512V16H66.808V4.36364ZM72.7867 16.1705C74.8208 16.1705 76.2185 15.1761 76.5821 13.6591L74.6617 13.4432C74.3833 14.1818 73.7014 14.5682 72.8151 14.5682C71.4855 14.5682 70.6048 13.6932 70.5878 12.1989H76.6673V11.5682C76.6673 8.50568 74.8264 7.15909 72.6787 7.15909C70.1787 7.15909 68.548 8.99432 68.548 11.6875C68.548 14.4261 70.156 16.1705 72.7867 16.1705ZM70.5935 10.8125C70.656 9.69886 71.4798 8.76136 72.7071 8.76136C73.8889 8.76136 74.6844 9.625 74.6958 10.8125H70.5935ZM88.7909 7.5625H90.8193C90.7796 5.59659 89.1034 4.20455 86.6262 4.20455C84.183 4.20455 82.3477 5.57955 82.3534 7.63636C82.3534 9.30682 83.5409 10.267 85.4557 10.7614L86.7796 11.1023C88.0352 11.4205 88.8648 11.8125 88.8705 12.7159C88.8648 13.7102 87.9216 14.375 86.5466 14.375C85.2284 14.375 84.2057 13.7841 84.1205 12.5625H82.0466C82.1318 14.875 83.8534 16.1761 86.5637 16.1761C89.3534 16.1761 90.9727 14.7841 90.9784 12.733C90.9727 10.7159 89.308 9.79545 87.558 9.38068L86.4671 9.10795C85.5125 8.88068 84.4784 8.47727 84.4898 7.50568C84.4955 6.63068 85.2796 5.98864 86.5977 5.98864C87.8534 5.98864 88.683 6.57386 88.7909 7.5625ZM97.1247 7.27273H95.4031V5.18182H93.3463V7.27273H92.1077V8.86364H93.3463V13.7159C93.335 15.358 94.5281 16.1648 96.0736 16.1193C96.6588 16.1023 97.0622 15.9886 97.2838 15.9148L96.9372 14.3068C96.8236 14.3352 96.5906 14.3864 96.335 14.3864C95.8179 14.3864 95.4031 14.2045 95.4031 13.375V8.86364H97.1247V7.27273ZM102.558 16.1705C105.115 16.1705 106.74 14.3693 106.74 11.6705C106.74 8.96591 105.115 7.15909 102.558 7.15909C100.001 7.15909 98.3762 8.96591 98.3762 11.6705C98.3762 14.3693 100.001 16.1705 102.558 16.1705ZM102.569 14.5227C101.155 14.5227 100.461 13.2614 100.461 11.6648C100.461 10.0682 101.155 8.78977 102.569 8.78977C103.961 8.78977 104.655 10.0682 104.655 11.6648C104.655 13.2614 103.961 14.5227 102.569 14.5227ZM108.486 16H110.542V10.8693C110.542 9.76136 111.378 8.97727 112.508 8.97727C112.855 8.97727 113.287 9.03977 113.463 9.09659V7.20455C113.275 7.17045 112.951 7.14773 112.724 7.14773C111.724 7.14773 110.889 7.71591 110.571 8.72727H110.48V7.27273H108.486V16ZM118.334 16.1705C120.368 16.1705 121.765 15.1761 122.129 13.6591L120.209 13.4432C119.93 14.1818 119.248 14.5682 118.362 14.5682C117.032 14.5682 116.152 13.6932 116.135 12.1989H122.214V11.5682C122.214 8.50568 120.373 7.15909 118.226 7.15909C115.726 7.15909 114.095 8.99432 114.095 11.6875C114.095 14.4261 115.703 16.1705 118.334 16.1705ZM116.14 10.8125C116.203 9.69886 117.027 8.76136 118.254 8.76136C119.436 8.76136 120.231 9.625 120.243 10.8125H116.14Z" fill="#232931"/>
<path d="M15.671 15.812C15.3941 16.4575 15.052 17.073 14.65 17.649C14.113 18.416 13.672 18.946 13.334 19.241C12.809 19.723 12.245 19.971 11.642 19.985C11.21 19.985 10.688 19.862 10.08 19.612C9.47 19.363 8.91 19.241 8.397 19.241C7.86 19.241 7.284 19.363 6.667 19.612C6.051 19.862 5.553 19.993 5.172 20.005C4.595 20.03 4.018 19.776 3.443 19.241C3.076 18.921 2.617 18.371 2.066 17.593C1.476 16.764 0.991 15.799 0.611 14.702C0.204 13.515 0 12.367 0 11.255C0 9.982 0.275 8.883 0.826 7.963C1.24275 7.24047 1.83855 6.63744 2.556 6.212C3.26347 5.78767 4.07109 5.55919 4.896 5.55C5.356 5.55 5.959 5.692 6.706 5.972C7.453 6.252 7.933 6.394 8.142 6.394C8.3 6.394 8.831 6.227 9.735 5.896C10.588 5.589 11.308 5.462 11.898 5.512C13.498 5.641 14.699 6.271 15.498 7.407C14.068 8.274 13.361 9.487 13.375 11.044C13.387 12.257 13.828 13.266 14.692 14.067C15.074 14.4325 15.5197 14.725 16.007 14.93C15.901 15.237 15.789 15.53 15.671 15.812V15.812ZM12.004 1.381C12.004 2.331 11.656 3.219 10.965 4.04C10.129 5.016 9.119 5.581 8.024 5.492C8.00968 5.37254 8.00266 5.25232 8.003 5.132C8.003 4.219 8.399 3.243 9.106 2.444C9.458 2.04 9.906 1.703 10.449 1.435C10.991 1.171 11.503 1.025 11.985 1C11.998 1.128 12.004 1.255 12.004 1.381V1.381Z" fill="#232931"/>
</svg>
